<?xml version="1.0" encoding="UTF-8" standalone="no"?>
<svg
   xmlns:dc="http://purl.org/dc/elements/1.1/"
   xmlns:rdf="http://www.w3.org/1999/02/22-rdf-syntax-ns#"
   xmlns:svg="http://www.w3.org/2000/svg"
   xmlns="http://www.w3.org/2000/svg"
   viewBox="0 0 570.65295 434.42334"
   height="434.42334"
   width="570.65295"
   id="svg869"
   version="1.1">
  <g
     transform="matrix(1.3333333,0,0,-1.3333333,-120.95077,954.1331)"
     id="g877">
    <rect
       style="fill:#00b105"
       width="4.77"
       height="4.77"
       x="478.38956"
       y="-241.70934"
       transform="matrix(0.70710679,0.70710677,0.70710677,-0.70710679,0,0)"
       ry="0" />
    <rect
       style="fill:#00b105"
       width="4.77"
       height="4.77"
       x="512.50043"
       y="-207.59848"
       transform="matrix(0.70710679,0.70710677,0.70710677,-0.70710679,0,0)"
       ry="0" />
    <rect
       style="fill:#00b105"
       width="4.77"
       height="4.77"
       x="547.12036"
       y="-173.65736"
       transform="matrix(0.70710679,0.70710677,0.70710677,-0.70710679,0,0)"
       ry="0" />
    <rect
       style="fill:#00b105"
       width="4.77"
       height="4.77"
       x="584.96466"
       y="-142.94066"
       transform="matrix(0.70710679,0.70710677,0.70710677,-0.70710679,0,0)"
       ry="0" />
    <rect
       style="fill:#00b105"
       width="4.77"
       height="4.77"
       x="634.68842"
       y="-124.10332"
       transform="matrix(0.70710679,0.70710677,0.70710677,-0.70710679,0,0)"
       ry="0" />
    <rect
       style="fill:#00b105"
       width="4.77"
       height="4.77"
       x="705.62537"
       y="-126.47922"
       transform="matrix(0.70710679,0.70710677,0.70710677,-0.70710679,0,0)"
       ry="0" />
    <rect
       style="fill:#00b105"
       width="4.77"
       height="4.77"
       x="773.84705"
       y="-126.47923"
       transform="matrix(0.70710679,0.70710677,0.70710677,-0.70710679,0,0)"
       ry="0" />
    <rect
       style="fill:#00b105"
       width="4.77"
       height="4.77"
       x="841.22021"
       y="-125.29127"
       transform="matrix(0.70710679,0.70710677,0.70710677,-0.70710679,0,0)"
       ry="0" />
    <rect
       style="fill:#00b105" 
       y="-344.65591"
       x="596.4267"
       height="4.77"
       width="4.77"
       transform="matrix(0.7071068,0.70710677,0.7071068,-0.70710677,0,0)"
       ry="0" />
    <path
       style="fill:#005ed0"
       d="m 173.1332,460.2268 c 0,-1.3255 -1.0745,-2.4 -2.4,-2.4 -1.3255,0 -2.4,1.0745 -2.4,2.4 0,1.3255 1.0745,2.4 2.4,2.4 1.3255,0 2.4,-1.0745 2.4,-2.4 z" />
    <path
       style="fill:#005ed0"
       d="m 221.3732,460.2268 c 0,-1.3255 -1.0745,-2.4 -2.4,-2.4 -1.3255,0 -2.4,1.0745 -2.4,2.4 0,1.3255 1.0745,2.4 2.4,2.4 1.3255,0 2.4,-1.0745 2.4,-2.4 z" />
    <path
       style="fill:#005ed0"
       d="m 269.8532,463.1068 c 0,-1.3255 -1.0745,-2.4 -2.4,-2.4 -1.3255,0 -2.4,1.0745 -2.4,2.4 0,1.3255 1.0745,2.4 2.4,2.4 1.3255,0 2.4,-1.0745 2.4,-2.4 z" />
    <path
       style="fill:#005ed0"
       d="m 318.3332,478.7068 c 0,-1.3255 -1.0745,-2.4 -2.4,-2.4 -1.3255,0 -2.4,1.0745 -2.4,2.4 0,1.3255 1.0745,2.4 2.4,2.4 1.3255,0 2.4,-1.0745 2.4,-2.4 z" />
    <path
       style="fill:#005ed0"
       d="m 366.8132,487.3468 c 0,-1.3255 -1.0745,-2.4 -2.4,-2.4 -1.3255,0 -2.4,1.0745 -2.4,2.4 0,1.3255 1.0745,2.4 2.4,2.4 1.3255,0 2.4,-1.0745 2.4,-2.4 z" />
    <path
       style="fill:#005ed0"
       d="m 415.2932,535.3468 c 0,-1.3255 -1.0745,-2.4 -2.4,-2.4 -1.3255,0 -2.4,1.0745 -2.4,2.4 0,1.3255 1.0745,2.4 2.4,2.4 1.3255,0 2.4,-1.0745 2.4,-2.4 z" />
    <path
       style="fill:#005ed0"
       d="m 463.5332,582.6268 c 0,-1.3255 -1.0745,-2.4 -2.4,-2.4 -1.3255,0 -2.4,1.0745 -2.4,2.4 0,1.3255 1.0745,2.4 2.4,2.4 1.3255,0 2.4,-1.0745 2.4,-2.4 z" />
    <path
       style="fill:#005ed0"
       d="m 512.0132,629.4268 c 0,-1.3255 -1.0745,-2.4 -2.4,-2.4 -1.3255,0 -2.4,1.0745 -2.4,2.4 0,1.3255 1.0745,2.4 2.4,2.4 1.3255,0 2.4,-1.0745 2.4,-2.4 z" />
    <text
       style="font-size:13px;font-family:Arial;text-align:end;text-anchor:end;fill:#000005"
       y="-451.55103"
       x="137.94876"
       transform="scale(1,-1)">10<tspan style="font-size:10px;baseline-shift:super">-5</tspan></text>
    <text
       style="font-size:13px;font-family:Arial;text-align:end;text-anchor:end;fill:#000005"
       y="-493.45633"
       x="138.03177"
       transform="scale(1,-1)">10<tspan style="font-size:10px;baseline-shift:super">-4</tspan></text>
    <text
       style="font-size:13px;font-family:Arial;text-align:end;text-anchor:end;fill:#000005"
       y="-535.39581"
       x="138.00247"
       transform="scale(1,-1)">10<tspan style="font-size:10px;baseline-shift:super">-3</tspan>  </text>
    <text
       style="font-size:13px;font-family:Arial;text-align:end;text-anchor:end;fill:#000005"
       y="-577.34998"
       x="138.07571"
       transform="scale(1,-1)">10<tspan style="font-size:10px;baseline-shift:super">-2</tspan></text>
    <text
       style="font-size:13px;font-family:Arial;text-align:end;text-anchor:end;fill:#000005"
       y="-619.30408"
       x="139.93655"
       transform="scale(1,-1)">10<tspan style="font-size:10px;baseline-shift:super">-1</tspan></text>
    <text
       style="font-size:13px;font-family:Arial;text-align:end;text-anchor:end;fill:#000005"
       y="-661.25818"
       x="140.36"
       transform="scale(1,-1)">10<tspan style="font-size:10px;baseline-shift:super">0</tspan></text>
    <text
       style="font-size:13px;font-family:Arial;text-align:end;text-anchor:end;fill:#000005"
       y="-703.21234"
       x="140.36"
       transform="scale(1,-1)">10<tspan style="font-size:10px;baseline-shift:super">1</tspan></text>
    <text
       style="font-size:13px;font-family:Arial;text-align:center;text-anchor:middle;fill:#000005"
       y="-411.58679"
       x="170.33965"
       transform="scale(1,-1)">10</text>
    <text
       style="font-size:13px;font-family:Arial;text-align:center;text-anchor:middle;fill:#000005"
       y="-411.58679"
       x="218.75105"
       transform="scale(1,-1)">100</text>
    <text
       style="font-size:13px;font-family:Arial;text-align:center;text-anchor:middle;fill:#000005"
       y="-411.58679"
       x="267.07779"
       transform="scale(1,-1)">10<tspan style="font-size:10px;baseline-shift:super">3</tspan></text>
    <text
       style="font-size:13px;font-family:Arial;text-align:center;text-anchor:middle;fill:#000005"
       y="-411.58679"
       x="315.50388"
       transform="scale(1,-1)">10<tspan style="font-size:10px;baseline-shift:super">4</tspan></text>
    <text
       style="font-size:13px;font-family:Arial;text-align:center;text-anchor:middle;fill:#000005"
       y="-411.58679"
       x="363.87378"
       transform="scale(1,-1)">10<tspan style="font-size:10px;baseline-shift:super">5</tspan></text>
    <text
       style="font-size:13px;font-family:Arial;text-align:center;text-anchor:middle;fill:#000005"
       y="-411.58679"
       x="412.31451"
       transform="scale(1,-1)">10<tspan style="font-size:10px;baseline-shift:super">6</tspan></text>
    <text
       style="font-size:13px;font-family:Arial;text-align:center;text-anchor:middle;fill:#000005"
       y="-411.58679"
       x="460.72351"
       transform="scale(1,-1)">10<tspan style="font-size:10px;baseline-shift:super">7</tspan></text>
    <text
       style="font-size:13px;font-family:Arial;text-align:center;text-anchor:middle;fill:#000005"
       y="-411.58679"
       x="509.12759"
       transform="scale(1,-1)">10<tspan style="font-size:10px;baseline-shift:super">8</tspan></text>
    <path
       style="fill:#4472c4"
       d="m 183.80381,688.6967 c 0,-1.3255 -1.0745,-2.4 -2.4,-2.4 -1.3255,0 -2.4,1.0745 -2.4,2.4 0,1.3255 1.0745,2.4 2.4,2.4 1.3255,0 2.4,-1.0745 2.4,-2.4 z" />
    <path
       d="m 183.80381,688.6967 c 0,-1.32548 -1.07452,-2.4 -2.4,-2.4 -1.32548,0 -2.4,1.07452 -2.4,2.4 0,1.32548 1.07452,2.4 2.4,2.4 1.32548,0 2.4,-1.07452 2.4,-2.4 z"
       style="fill:#005ed0" />
    <text
       style="font-size:13px;font-family:Arial;fill:#000005"
       y="-684.87671"
       x="188.94623"
       transform="scale(1,-1)">this package</text>
    <text
       style="font-size:13px;font-family:Arial;fill:#000005"
       y="-661.28851"
       x="189.30457"
       transform="scale(1,-1)">scipy.stats.linregress</text>
    <path
       style="fill:none;stroke:#000000;stroke-width:0.75px"
       d="m 170.7332,437.45201 v -7.5" />
    <path
       style="fill:none;stroke:#000000;stroke-width:0.75px"
       d="m 219.14462,437.45201 v -7.5"/>
    <path
       style="fill:none;stroke:#000000;stroke-width:0.75px"
       d="m 267.55606,437.45201 v -7.5" />
    <path
       style="fill:none;stroke:#000000;stroke-width:0.75px"
       d="m 315.96748,437.45201 v -7.5" />
    <path
       style="fill:none;stroke:#000000;stroke-width:0.75px"
       d="m 364.37891,437.45201 v -7.5" />
    <path
       style="fill:none;stroke:#000000;stroke-width:0.75px"
       d="m 412.79035,437.45201 v -7.5" />
    <path
       style="fill:none;stroke:#000000;stroke-width:0.75px"
       d="m 461.20177,437.45201 v -7.5" />
    <path
       style="fill:none;stroke:#000000;stroke-width:0.75px"
       d="m 509.6132,437.45201 v -7.5" />
    <path
       style="fill:#000005;stroke:#000000;stroke-width:0.75px"
       d="m 142.95066,456.10196 h 7.5" />
    <path
       style="fill:#000005;stroke:#000000;stroke-width:0.75px"
       d="m 142.95066,498.05608 h 7.5"/>
    <path
       style="fill:#000005;stroke:#000000;stroke-width:0.75px"
       d="m 142.95066,540.01023 h 7.5" />
    <path
       style="fill:#000005;stroke:#000000;stroke-width:0.75px"
       d="m 142.95066,581.96436 h 7.5" />
    <path
       style="fill:#000005;stroke:#000000;stroke-width:0.75px"
       d="m 142.95066,623.91849 h 7.5" />
    <path
       style="fill:#000005;stroke:#000000;stroke-width:0.75px"
       d="m 142.95066,665.87262 h 7.5" />
    <path
       style="fill:#000005;stroke:#000000;stroke-width:0.75px"
       d="m 142.95066,707.82675 h 7.5" />
    <path
       d="M 150.07566,456.60832 V 708.20174"
       style="fill:#000005;stroke:#000000;stroke-width:0.75px" />
    <path
       style="fill:#000005;stroke:#000000;stroke-width:0.75px"
       d="M 509.74214,437.07701 H 170.35821" />
    <text
       style="font-size:13px;font-family:Arial;text-align:center;text-anchor:middle"
       y="100.17744"
       x="582.4939"
       transform="matrix(0,1,1,0,0,0)">Time (seconds)</text>
    <text
       style="font-size:13px;font-family:Arial;text-align:center;text-anchor:middle"
       y="-392.51816"
       x="340.3009"
       transform="scale(1,-1)">Array size (n)</text>
  </g>
</svg>
