<?xml version="1.0" encoding="UTF-8" standalone="no"?>
<svg
   xmlns:dc="http://purl.org/dc/elements/1.1/"
   xmlns:cc="http://creativecommons.org/ns#"
   xmlns:rdf="http://www.w3.org/1999/02/22-rdf-syntax-ns#"
   xmlns:svg="http://www.w3.org/2000/svg"
   xmlns="http://www.w3.org/2000/svg"
   xmlns:sodipodi="http://sodipodi.sourceforge.net/DTD/sodipodi-0.dtd"
   xmlns:inkscape="http://www.inkscape.org/namespaces/inkscape"
   width="474.23972mm"
   height="145.90622mm"
   viewBox="0 0 474.23972 145.90622"
   version="1.1"
   id="svg8"
   inkscape:version="1.0 (4035a4f, 2020-05-01)"
   sodipodi:docname="reliability.svg">
  <defs
     id="defs2" />
  <sodipodi:namedview
     fit-margin-bottom="0"
     fit-margin-right="0"
     fit-margin-left="0"
     fit-margin-top="0"
     id="base"
     pagecolor="#ffffff"
     bordercolor="#666666"
     borderopacity="1.0"
     inkscape:pageopacity="0.0"
     inkscape:pageshadow="2"
     inkscape:zoom="0.51920956"
     inkscape:cx="934.33402"
     inkscape:cy="255.2999"
     inkscape:document-units="mm"
     inkscape:current-layer="layer1"
     inkscape:document-rotation="0"
     showgrid="false"
     inkscape:window-width="1680"
     inkscape:window-height="957"
     inkscape:window-x="1768"
     inkscape:window-y="26"
     inkscape:window-maximized="0" />
  <metadata
     id="metadata5">
    <rdf:RDF>
      <cc:Work
         rdf:about="">
        <dc:format>image/svg+xml</dc:format>
        <dc:type
           rdf:resource="http://purl.org/dc/dcmitype/StillImage" />
        <dc:title></dc:title>
      </cc:Work>
    </rdf:RDF>
  </metadata>
  <g
     transform="translate(185.53804,-104.93971)"
     inkscape:label="Layer 1"
     inkscape:groupmode="layer"
     id="layer1">
    <path
       d="m -134.73761,231.79314 v 3"
       style="fill:#000000;fill-opacity:1;fill-rule:nonzero;stroke:#000000;stroke-width:0.4;stroke-linecap:butt;stroke-linejoin:round;stroke-miterlimit:10;stroke-dasharray:none;stroke-dashoffset:0;stroke-opacity:1"
       id="path847" />
    <text
       style="font-style:normal;font-variant:normal;font-weight:normal;font-stretch:normal;font-size:5.64444px;font-family:Arial;-inkscape-font-specification:Arial;writing-mode:lr-tb;fill:#000000;fill-opacity:1;fill-rule:nonzero;stroke:none;stroke-width:0.352778"
       id="text851"
       x="-139.65993"
       y="240.11644"><tspan
         x="-139.65993"
         y="240.11644"
         sodipodi:role="line"
         id="tspan849"
         style="font-style:normal;font-variant:normal;font-weight:normal;font-stretch:normal;font-size:5.64444px;font-family:Arial;-inkscape-font-specification:Arial;stroke-width:0.352778">0.0</tspan></text>
    <path
       d="m -114.96586,231.79314 v 3"
       style="fill:#000000;fill-opacity:1;fill-rule:nonzero;stroke:#000000;stroke-width:0.4;stroke-linecap:butt;stroke-linejoin:round;stroke-miterlimit:10;stroke-dasharray:none;stroke-dashoffset:0;stroke-opacity:1"
       id="path853" />
    <text
       style="font-style:normal;font-variant:normal;font-weight:normal;font-stretch:normal;font-size:5.64444px;font-family:Arial;-inkscape-font-specification:Arial;writing-mode:lr-tb;fill:#000000;fill-opacity:1;fill-rule:nonzero;stroke:none;stroke-width:0.352778"
       id="text857"
       x="-119.8882"
       y="240.11644"><tspan
         x="-119.8882"
         y="240.11644"
         sodipodi:role="line"
         id="tspan855"
         style="font-style:normal;font-variant:normal;font-weight:normal;font-stretch:normal;font-size:5.64444px;font-family:Arial;-inkscape-font-specification:Arial;stroke-width:0.352778">0.2</tspan></text>
    <path
       d="m -95.194123,231.79314 v 3"
       style="fill:#000000;fill-opacity:1;fill-rule:nonzero;stroke:#000000;stroke-width:0.4;stroke-linecap:butt;stroke-linejoin:round;stroke-miterlimit:10;stroke-dasharray:none;stroke-dashoffset:0;stroke-opacity:1"
       id="path859" />
    <text
       style="font-style:normal;font-variant:normal;font-weight:normal;font-stretch:normal;font-size:5.64444px;font-family:Arial;-inkscape-font-specification:Arial;writing-mode:lr-tb;fill:#000000;fill-opacity:1;fill-rule:nonzero;stroke:none;stroke-width:0.352778"
       id="text863"
       x="-100.11648"
       y="240.11644"><tspan
         x="-100.11648"
         y="240.11644"
         sodipodi:role="line"
         id="tspan861"
         style="font-style:normal;font-variant:normal;font-weight:normal;font-stretch:normal;font-size:5.64444px;font-family:Arial;-inkscape-font-specification:Arial;stroke-width:0.352778">0.4</tspan></text>
    <path
       d="m -75.422376,231.79314 v 3"
       style="fill:#000000;fill-opacity:1;fill-rule:nonzero;stroke:#000000;stroke-width:0.4;stroke-linecap:butt;stroke-linejoin:round;stroke-miterlimit:10;stroke-dasharray:none;stroke-dashoffset:0;stroke-opacity:1"
       id="path865" />
    <text
       style="font-style:normal;font-variant:normal;font-weight:normal;font-stretch:normal;font-size:5.64444px;font-family:Arial;-inkscape-font-specification:Arial;writing-mode:lr-tb;fill:#000000;fill-opacity:1;fill-rule:nonzero;stroke:none;stroke-width:0.352778"
       id="text869"
       x="-80.344734"
       y="240.11644"><tspan
         x="-80.344734"
         y="240.11644"
         sodipodi:role="line"
         id="tspan867"
         style="font-style:normal;font-variant:normal;font-weight:normal;font-stretch:normal;font-size:5.64444px;font-family:Arial;-inkscape-font-specification:Arial;stroke-width:0.352778">0.6</tspan></text>
    <path
       d="m -55.650625,231.79314 v 3"
       style="fill:#000000;fill-opacity:1;fill-rule:nonzero;stroke:#000000;stroke-width:0.4;stroke-linecap:butt;stroke-linejoin:round;stroke-miterlimit:10;stroke-dasharray:none;stroke-dashoffset:0;stroke-opacity:1"
       id="path871" />
    <text
       style="font-style:normal;font-variant:normal;font-weight:normal;font-stretch:normal;font-size:5.64444px;font-family:Arial;-inkscape-font-specification:Arial;writing-mode:lr-tb;fill:#000000;fill-opacity:1;fill-rule:nonzero;stroke:none;stroke-width:0.352778"
       id="text875"
       x="-60.572987"
       y="240.11644"><tspan
         x="-60.572987"
         y="240.11644"
         sodipodi:role="line"
         id="tspan873"
         style="font-style:normal;font-variant:normal;font-weight:normal;font-stretch:normal;font-size:5.64444px;font-family:Arial;-inkscape-font-specification:Arial;stroke-width:0.352778">0.8</tspan></text>
    <path
       d="m -35.878878,231.79314 v 3"
       style="fill:#000000;fill-opacity:1;fill-rule:nonzero;stroke:#000000;stroke-width:0.4;stroke-linecap:butt;stroke-linejoin:round;stroke-miterlimit:10;stroke-dasharray:none;stroke-dashoffset:0;stroke-opacity:1"
       id="path877" />
    <text
       style="font-style:normal;font-variant:normal;font-weight:normal;font-stretch:normal;font-size:5.64444px;font-family:Arial;-inkscape-font-specification:Arial;writing-mode:lr-tb;fill:#000000;fill-opacity:1;fill-rule:nonzero;stroke:none;stroke-width:0.352778"
       id="text881"
       x="-40.801231"
       y="240.11644"><tspan
         x="-40.801231"
         y="240.11644"
         sodipodi:role="line"
         id="tspan879"
         style="font-style:normal;font-variant:normal;font-weight:normal;font-stretch:normal;font-size:5.64444px;font-family:Arial;-inkscape-font-specification:Arial;stroke-width:0.352778">1.0</tspan></text>
    <path
       d="m -148.47912,218.00009 h -3"
       style="fill:#000000;fill-opacity:1;fill-rule:nonzero;stroke:#000000;stroke-width:0.4;stroke-linecap:butt;stroke-linejoin:round;stroke-miterlimit:10;stroke-dasharray:none;stroke-dashoffset:0;stroke-opacity:1"
       id="path883" />
    <text
       style="font-style:normal;font-variant:normal;font-weight:normal;font-stretch:normal;font-size:5.64444px;font-family:Arial;-inkscape-font-specification:Arial;writing-mode:lr-tb;fill:#000000;fill-opacity:1;fill-rule:nonzero;stroke:none;stroke-width:0.352778"
       id="text887"
       x="-160.40517"
       y="219.8687"><tspan
         x="-160.40517"
         y="219.8687"
         sodipodi:role="line"
         id="tspan885"
         style="font-style:normal;font-variant:normal;font-weight:normal;font-stretch:normal;font-size:5.64444px;font-family:Arial;-inkscape-font-specification:Arial;stroke-width:0.352778">0.0</tspan></text>
    <path
       d="m -148.47912,198.3559 h -3"
       style="fill:#000000;fill-opacity:1;fill-rule:nonzero;stroke:#000000;stroke-width:0.4;stroke-linecap:butt;stroke-linejoin:round;stroke-miterlimit:10;stroke-dasharray:none;stroke-dashoffset:0;stroke-opacity:1"
       id="path889" />
    <text
       style="font-style:normal;font-variant:normal;font-weight:normal;font-stretch:normal;font-size:5.64444px;font-family:Arial;-inkscape-font-specification:Arial;writing-mode:lr-tb;fill:#000000;fill-opacity:1;fill-rule:nonzero;stroke:none;stroke-width:0.352778"
       id="text893"
       x="-160.40517"
       y="200.2245"><tspan
         x="-160.40517"
         y="200.2245"
         sodipodi:role="line"
         id="tspan891"
         style="font-style:normal;font-variant:normal;font-weight:normal;font-stretch:normal;font-size:5.64444px;font-family:Arial;-inkscape-font-specification:Arial;stroke-width:0.352778">0.2</tspan></text>
    <path
       d="m -148.47912,178.71171 h -3"
       style="fill:#000000;fill-opacity:1;fill-rule:nonzero;stroke:#000000;stroke-width:0.4;stroke-linecap:butt;stroke-linejoin:round;stroke-miterlimit:10;stroke-dasharray:none;stroke-dashoffset:0;stroke-opacity:1"
       id="path895" />
    <text
       style="font-style:normal;font-variant:normal;font-weight:normal;font-stretch:normal;font-size:5.64444px;font-family:Arial;-inkscape-font-specification:Arial;writing-mode:lr-tb;fill:#000000;fill-opacity:1;fill-rule:nonzero;stroke:none;stroke-width:0.352778"
       id="text899"
       x="-160.40517"
       y="180.58032"><tspan
         x="-160.40517"
         y="180.58032"
         sodipodi:role="line"
         id="tspan897"
         style="font-style:normal;font-variant:normal;font-weight:normal;font-stretch:normal;font-size:5.64444px;font-family:Arial;-inkscape-font-specification:Arial;stroke-width:0.352778">0.4</tspan></text>
    <path
       d="m -148.47912,159.06752 h -3"
       style="fill:#000000;fill-opacity:1;fill-rule:nonzero;stroke:#000000;stroke-width:0.4;stroke-linecap:butt;stroke-linejoin:round;stroke-miterlimit:10;stroke-dasharray:none;stroke-dashoffset:0;stroke-opacity:1"
       id="path901" />
    <text
       style="font-style:normal;font-variant:normal;font-weight:normal;font-stretch:normal;font-size:5.64444px;font-family:Arial;-inkscape-font-specification:Arial;writing-mode:lr-tb;fill:#000000;fill-opacity:1;fill-rule:nonzero;stroke:none;stroke-width:0.352778"
       id="text905"
       x="-160.40517"
       y="160.93613"><tspan
         x="-160.40517"
         y="160.93613"
         sodipodi:role="line"
         id="tspan903"
         style="font-style:normal;font-variant:normal;font-weight:normal;font-stretch:normal;font-size:5.64444px;font-family:Arial;-inkscape-font-specification:Arial;stroke-width:0.352778">0.6</tspan></text>
    <path
       d="m -148.47912,139.42333 h -3"
       style="fill:#000000;fill-opacity:1;fill-rule:nonzero;stroke:#000000;stroke-width:0.4;stroke-linecap:butt;stroke-linejoin:round;stroke-miterlimit:10;stroke-dasharray:none;stroke-dashoffset:0;stroke-opacity:1"
       id="path907" />
    <text
       style="font-style:normal;font-variant:normal;font-weight:normal;font-stretch:normal;font-size:5.64444px;font-family:Arial;-inkscape-font-specification:Arial;writing-mode:lr-tb;fill:#000000;fill-opacity:1;fill-rule:nonzero;stroke:none;stroke-width:0.352778"
       id="text911"
       x="-160.40517"
       y="141.29195"><tspan
         x="-160.40517"
         y="141.29195"
         sodipodi:role="line"
         id="tspan909"
         style="font-style:normal;font-variant:normal;font-weight:normal;font-stretch:normal;font-size:5.64444px;font-family:Arial;-inkscape-font-specification:Arial;stroke-width:0.352778">0.8</tspan></text>
    <path
       d="m -148.47912,119.77914 h -3"
       style="fill:#000000;fill-opacity:1;fill-rule:nonzero;stroke:#000000;stroke-width:0.4;stroke-linecap:butt;stroke-linejoin:round;stroke-miterlimit:10;stroke-dasharray:none;stroke-dashoffset:0;stroke-opacity:1"
       id="path913" />
    <text
       style="font-style:normal;font-variant:normal;font-weight:normal;font-stretch:normal;font-size:5.64444px;font-family:Arial;-inkscape-font-specification:Arial;writing-mode:lr-tb;fill:#000000;fill-opacity:1;fill-rule:nonzero;stroke:none;stroke-width:0.352778"
       id="text917"
       x="-160.40517"
       y="121.64777"><tspan
         x="-160.40517"
         y="121.64777"
         sodipodi:role="line"
         id="tspan915"
         style="font-style:normal;font-variant:normal;font-weight:normal;font-stretch:normal;font-size:5.64444px;font-family:Arial;-inkscape-font-specification:Arial;stroke-width:0.352778">1.0</tspan></text>
    <path
       d="m -126.40226,210.24678 c 1.16544,-0.098 0.0477,-1.77088 -0.48887,-0.73169 -0.15148,0.33208 0.12411,0.74453 0.48887,0.73169 z m 1.99671,-3.25894 c -0.76419,1.21393 1.57658,0.94198 0.63171,-0.0625 -0.19554,-0.1287 -0.44834,-0.0426 -0.63171,0.0625 z m -0.62022,1.89133 c 1.16544,-0.098 0.0477,-1.77088 -0.48887,-0.73169 -0.15148,0.33208 0.12411,0.74453 0.48887,0.73169 z m -0.6817,0.6773 c 1.16544,-0.098 0.0477,-1.77088 -0.48887,-0.73169 -0.15148,0.33208 0.12411,0.74453 0.48887,0.73169 z m 1.44801,-2.71379 c -0.76419,1.21393 1.57658,0.94198 0.63171,-0.0625 -0.19554,-0.1287 -0.44834,-0.0427 -0.63171,0.0625 z m -0.1249,1.39921 c 1.2793,-0.22565 -0.34111,-1.83841 -0.52917,-0.52917 -0.007,0.28344 0.24572,0.53607 0.52917,0.52917 z m 0.0598,-0.0594 c 1.2793,-0.22565 -0.34111,-1.83841 -0.52917,-0.52917 -0.007,0.28344 0.24572,0.53607 0.52917,0.52917 z m -0.12406,-1.15186 c -0.76419,1.21393 1.57658,0.94198 0.63171,-0.0625 -0.19554,-0.1287 -0.44834,-0.0426 -0.63171,0.0625 z m 0.21676,0.005 c 0.28339,-0.60979 -0.0606,0.85406 0,0 z m -1.5257,2.57078 c 1.16544,-0.098 0.0477,-1.77088 -0.48887,-0.73169 -0.15148,0.33208 0.12411,0.74453 0.48887,0.73169 z m 0.12074,-0.11996 c 1.16544,-0.098 0.0477,-1.77088 -0.48887,-0.73169 -0.15148,0.33208 0.12411,0.74453 0.48887,0.73169 z m 0.65544,-0.65121 c 1.16544,-0.098 0.0477,-1.77088 -0.48887,-0.73169 -0.15148,0.33208 0.12411,0.74453 0.48887,0.73169 z m -0.62487,0.62084 c 1.16544,-0.098 0.0477,-1.77088 -0.48887,-0.73169 -0.15148,0.33208 0.12411,0.74453 0.48887,0.73169 z m -1.00454,0.99806 c 1.16544,-0.098 0.0477,-1.77088 -0.48887,-0.73169 -0.15148,0.33208 0.12411,0.74453 0.48887,0.73169 z m -1.76971,1.75831 c 1.16544,-0.098 0.0477,-1.77088 -0.48887,-0.73169 -0.15148,0.33208 0.12411,0.74453 0.48887,0.73169 z m 4.0411,-5.29013 c -0.76419,1.21393 1.57658,0.94198 0.63171,-0.0625 -0.19554,-0.1287 -0.44834,-0.0427 -0.63171,0.0625 z m -3.39128,4.64451 c 1.16544,-0.098 0.0477,-1.77088 -0.48887,-0.73169 -0.15148,0.33208 0.12411,0.74453 0.48887,0.73169 z m 0.0256,-0.0255 c 1.16544,-0.098 0.0477,-1.77088 -0.48887,-0.73169 -0.15148,0.33208 0.12411,0.74453 0.48887,0.73169 z m -1.25686,1.24876 c 1.16544,-0.098 0.0477,-1.77088 -0.48887,-0.73169 -0.15148,0.33208 0.12411,0.74453 0.48887,0.73169 z m 1.45287,-1.4435 c 1.16544,-0.098 0.0477,-1.77088 -0.48887,-0.73169 -0.15148,0.33208 0.12411,0.74453 0.48887,0.73169 z m 1.41759,-1.40844 c 1.16544,-0.098 0.0477,-1.77088 -0.48887,-0.73169 -0.15148,0.33208 0.12411,0.74453 0.48887,0.73169 z m -3.81214,3.78755 c 1.16544,-0.098 0.0477,-1.77088 -0.48887,-0.73169 -0.15148,0.33208 0.12411,0.74453 0.48887,0.73169 z m 1.60409,-1.59374 c 1.16544,-0.098 0.0477,-1.77088 -0.48887,-0.73169 -0.15148,0.33208 0.12411,0.74453 0.48887,0.73169 z m -2.88476,2.86614 c 1.16544,-0.098 0.0477,-1.77088 -0.48887,-0.73169 -0.15148,0.33208 0.12411,0.74453 0.48887,0.73169 z m 2.25595,-2.2414 c 1.16544,-0.098 0.0477,-1.77088 -0.48887,-0.73169 -0.15148,0.33208 0.12411,0.74453 0.48887,0.73169 z m 3.23992,-3.21901 c 1.16544,-0.098 0.0477,-1.77088 -0.48887,-0.73169 -0.15148,0.33208 0.12411,0.74453 0.48887,0.73169 z m 0.91818,-0.91226 c 1.16544,-0.098 0.0477,-1.77088 -0.48887,-0.73169 -0.15148,0.33208 0.12411,0.74453 0.48887,0.73169 z m -5.14078,5.10761 c 1.16544,-0.098 0.0477,-1.77088 -0.48887,-0.73169 -0.15148,0.33208 0.12411,0.74453 0.48887,0.73169 z m 2.58832,-2.57162 c 1.16544,-0.098 0.0477,-1.77088 -0.48887,-0.73169 -0.15148,0.33208 0.12411,0.74453 0.48887,0.73169 z m 2.83431,-4.09114 c -0.76419,1.21393 1.57658,0.94198 0.63171,-0.0625 -0.19554,-0.1287 -0.44834,-0.0427 -0.63171,0.0625 z m -4.33812,5.58525 c 1.16544,-0.098 0.0477,-1.77088 -0.48887,-0.73169 -0.15148,0.33208 0.12411,0.74453 0.48887,0.73169 z m 4.3541,-4.326 c 1.2793,-0.22565 -0.34111,-1.83841 -0.52917,-0.52917 -0.007,0.28344 0.24572,0.53607 0.52917,0.52917 z m -0.58466,0.58088 c 1.16544,-0.098 0.0477,-1.77088 -0.48887,-0.73169 -0.15148,0.33208 0.12411,0.74453 0.48887,0.73169 z m -8.54952,8.49436 c 1.16544,-0.098 0.0477,-1.77088 -0.48887,-0.73169 -0.15148,0.33208 0.12411,0.74453 0.48887,0.73169 z m 8.35124,-8.29736 c 1.16544,-0.098 0.0477,-1.77088 -0.48887,-0.73169 -0.15148,0.33208 0.12411,0.74453 0.48887,0.73169 z m 0.88838,-2.15776 c -0.76419,1.21393 1.57658,0.94198 0.63171,-0.0625 -0.19554,-0.1287 -0.44834,-0.0427 -0.63171,0.0625 z m -5.09459,6.33684 c 1.16544,-0.098 0.0477,-1.77088 -0.48887,-0.73169 -0.15148,0.33208 0.12411,0.74453 0.48887,0.73169 z m -0.1617,0.16066 c 1.16544,-0.098 0.0477,-1.77088 -0.48887,-0.73169 -0.15148,0.33208 0.12411,0.74453 0.48887,0.73169 z m 3.3899,-3.36802 c 1.16544,-0.098 0.0477,-1.77088 -0.48887,-0.73169 -0.15148,0.33208 0.12411,0.74453 0.48887,0.73169 z m -13.13859,13.05382 c 1.16544,-0.098 0.0477,-1.77088 -0.48887,-0.73169 -0.15148,0.33208 0.12411,0.74453 0.48887,0.73169 z m 9.1428,-9.08381 c 1.16544,-0.098 0.0477,-1.77088 -0.48887,-0.73169 -0.15148,0.33208 0.12411,0.74453 0.48887,0.73169 z m 0.58296,-0.57919 c 1.16544,-0.098 0.0477,-1.77088 -0.48887,-0.73169 -0.15148,0.33208 0.12411,0.74453 0.48887,0.73169 z m -1.82988,1.81808 c 1.16544,-0.098 0.0477,-1.77088 -0.48887,-0.73169 -0.15148,0.33208 0.12411,0.74453 0.48887,0.73169 z m 1.53861,-1.52868 c 1.16544,-0.098 0.0477,-1.77088 -0.48887,-0.73169 -0.15148,0.33208 0.12411,0.74453 0.48887,0.73169 z m 5.51455,-6.75409 c -0.76419,1.21393 1.57658,0.94198 0.63171,-0.0625 -0.19554,-0.1287 -0.44834,-0.0427 -0.63171,0.0625 z m -8.00927,9.23272 c 1.16544,-0.098 0.0477,-1.77088 -0.48887,-0.73169 -0.15148,0.33208 0.12411,0.74453 0.48887,0.73169 z m 5.52768,-5.49202 c 1.16544,-0.098 0.0477,-1.77088 -0.48887,-0.73169 -0.15148,0.33208 0.12411,0.74453 0.48887,0.73169 z m -2.2323,2.2179 c 1.16544,-0.098 0.0477,-1.77088 -0.48887,-0.73169 -0.15148,0.33208 0.12411,0.74453 0.48887,0.73169 z m 2.60285,-2.58606 c 1.16544,-0.098 0.0477,-1.77088 -0.48887,-0.73169 -0.15148,0.33208 0.12411,0.74453 0.48887,0.73169 z m -7.55424,7.50551 c 1.16544,-0.098 0.0477,-1.77088 -0.48887,-0.73169 -0.15148,0.33208 0.12411,0.74453 0.48887,0.73169 z m 6.16028,-6.12054 c 1.16544,-0.098 0.0477,-1.77088 -0.48887,-0.73169 -0.15148,0.33208 0.12411,0.74453 0.48887,0.73169 z m -5.72128,5.68437 c 1.16544,-0.098 0.0477,-1.77088 -0.48887,-0.73169 -0.15148,0.33208 0.12411,0.74453 0.48887,0.73169 z m 8.85382,-8.79669 c 1.16544,-0.098 0.0477,-1.77088 -0.48887,-0.73169 -0.15148,0.33208 0.12411,0.74453 0.48887,0.73169 z m -9.97689,9.91252 c 1.16544,-0.098 0.0477,-1.77088 -0.48887,-0.73169 -0.15148,0.33208 0.12411,0.74453 0.48887,0.73169 z m 5.19856,-5.16502 c 1.16544,-0.098 0.0477,-1.77088 -0.48887,-0.73169 -0.15148,0.33208 0.12411,0.74453 0.48887,0.73169 z m 4.89136,-4.85981 c 1.14351,-0.0985 0.0399,-1.77292 -0.48887,-0.73169 -0.15148,0.33208 0.12411,0.74453 0.48887,0.73169 z m 0.14151,-0.1406 c 1.2793,-0.22565 -0.34111,-1.83841 -0.52917,-0.52917 -0.007,0.28344 0.24572,0.53607 0.52917,0.52917 z m -4.99009,4.9579 c 1.16544,-0.098 0.0477,-1.77088 -0.48887,-0.73169 -0.15148,0.33208 0.12411,0.74453 0.48887,0.73169 z m -6.64603,6.60315 c 1.16544,-0.098 0.0477,-1.77088 -0.48887,-0.73169 -0.15148,0.33208 0.12411,0.74453 0.48887,0.73169 z m 9.32714,-9.26697 c 1.16544,-0.098 0.0477,-1.77088 -0.48887,-0.73169 -0.15148,0.33208 0.12411,0.74453 0.48887,0.73169 z m -3.62482,3.60143 c 1.16544,-0.098 0.0477,-1.77088 -0.48887,-0.73169 -0.15148,0.33208 0.12411,0.74453 0.48887,0.73169 z m 6.18822,-7.20322 c 0.0248,0.61173 -0.0922,0.91409 0,0 z m -1.1523,2.19979 c 1.16544,-0.098 0.0477,-1.77088 -0.48887,-0.73169 -0.15148,0.33208 0.12411,0.74453 0.48887,0.73169 z m -8.76271,8.70618 c 1.16544,-0.098 0.0477,-1.77088 -0.48887,-0.73169 -0.15148,0.33208 0.12411,0.74453 0.48887,0.73169 z m 4.61053,-4.58078 c 1.16544,-0.098 0.0477,-1.77088 -0.48887,-0.73169 -0.15148,0.33208 0.12411,0.74453 0.48887,0.73169 z m 0.44109,-0.43824 c 1.16544,-0.098 0.0477,-1.77088 -0.48887,-0.73169 -0.15148,0.33208 0.12411,0.74453 0.48887,0.73169 z m 0.82777,-0.82243 c 1.16544,-0.098 0.0477,-1.77088 -0.48887,-0.73169 -0.15148,0.33208 0.12411,0.74453 0.48887,0.73169 z m 2.51826,-2.50201 c 1.16544,-0.098 0.0477,-1.77088 -0.48887,-0.73169 -0.15148,0.33208 0.12411,0.74453 0.48887,0.73169 z m -7.39416,7.34645 c 1.16544,-0.098 0.0477,-1.77088 -0.48887,-0.73169 -0.15148,0.33208 0.12411,0.74453 0.48887,0.73169 z m -0.0111,0.0111 c 1.16544,-0.098 0.0477,-1.77088 -0.48887,-0.73169 -0.15148,0.33208 0.12411,0.74453 0.48887,0.73169 z m 1.43847,-1.42918 c 1.16544,-0.098 0.0477,-1.77088 -0.48887,-0.73169 -0.15148,0.33208 0.12411,0.74453 0.48887,0.73169 z m 2.34665,-2.33151 c 1.16544,-0.098 0.0477,-1.77088 -0.48887,-0.73169 -0.15148,0.33208 0.12411,0.74453 0.48887,0.73169 z m -0.41701,0.41432 c 1.16544,-0.098 0.0477,-1.77088 -0.48887,-0.73169 -0.15148,0.33208 0.12411,0.74453 0.48887,0.73169 z m -3.23118,3.21033 c 1.16544,-0.098 0.0477,-1.77088 -0.48887,-0.73169 -0.15148,0.33208 0.12411,0.74453 0.48887,0.73169 z m 0.65289,-0.64868 c 1.16544,-0.098 0.0477,-1.77088 -0.48887,-0.73169 -0.15148,0.33208 0.12411,0.74453 0.48887,0.73169 z m 4.11634,-4.08978 c 1.16544,-0.098 0.0477,-1.77088 -0.48887,-0.73169 -0.15148,0.33208 0.12411,0.74453 0.48887,0.73169 z m -1.8624,1.85038 c 1.16544,-0.098 0.0477,-1.77088 -0.48887,-0.73169 -0.15148,0.33208 0.12411,0.74453 0.48887,0.73169 z m -2.02193,2.00888 c 1.16544,-0.098 0.0477,-1.77088 -0.48887,-0.73169 -0.15148,0.33208 0.12411,0.74453 0.48887,0.73169 z m -1.66946,1.65869 c 1.16544,-0.098 0.0477,-1.77088 -0.48887,-0.73169 -0.15148,0.33208 0.12411,0.74453 0.48887,0.73169 z m 4.86724,-4.83584 c 1.16544,-0.098 0.0477,-1.77088 -0.48887,-0.73169 -0.15148,0.33208 0.12411,0.74453 0.48887,0.73169 z m -0.90557,0.89973 c 1.16544,-0.098 0.0477,-1.77088 -0.48887,-0.73169 -0.15148,0.33208 0.12411,0.74453 0.48887,0.73169 z m -7.84827,7.79764 c 1.16544,-0.098 0.0477,-1.77088 -0.48887,-0.73169 -0.15148,0.33208 0.12411,0.74453 0.48887,0.73169 z m 2.03252,-2.0194 c 1.16544,-0.098 0.0477,-1.77088 -0.48887,-0.73169 -0.15148,0.33208 0.12411,0.74453 0.48887,0.73169 z m 3.66352,-3.63988 c 1.16544,-0.098 0.0477,-1.77088 -0.48887,-0.73169 -0.15148,0.33208 0.12411,0.74453 0.48887,0.73169 z m 3.64658,-3.62305 c 1.16544,-0.098 0.0477,-1.77088 -0.48887,-0.73169 -0.15148,0.33208 0.12411,0.74453 0.48887,0.73169 z m -6.20728,6.16723 c 1.16544,-0.098 0.0477,-1.77088 -0.48887,-0.73169 -0.15148,0.33208 0.12411,0.74453 0.48887,0.73169 z m 0.24542,-0.24384 c 1.16544,-0.098 0.0477,-1.77088 -0.48887,-0.73169 -0.15148,0.33208 0.12411,0.74453 0.48887,0.73169 z m 6.23634,-6.1961 c 1.16544,-0.098 0.0477,-1.77088 -0.48887,-0.73169 -0.15148,0.33208 0.12411,0.74453 0.48887,0.73169 z m -2.71677,2.69925 c 1.16544,-0.098 0.0477,-1.77088 -0.48887,-0.73169 -0.15148,0.33208 0.12411,0.74453 0.48887,0.73169 z m -6.77407,6.73037 c 1.16544,-0.098 0.0477,-1.77088 -0.48887,-0.73169 -0.15148,0.33208 0.12411,0.74453 0.48887,0.73169 z m 4.74926,-4.71862 c 1.16544,-0.098 0.0477,-1.77088 -0.48887,-0.73169 -0.15148,0.33208 0.12411,0.74453 0.48887,0.73169 z m 6.70904,-6.66575 c 1.16544,-0.098 0.0477,-1.77088 -0.48887,-0.73169 -0.15148,0.33208 0.12411,0.74453 0.48887,0.73169 z m -6.87172,6.82738 c 1.16544,-0.098 0.0477,-1.77088 -0.48887,-0.73169 -0.15148,0.33208 0.12411,0.74453 0.48887,0.73169 z m -10.22126,10.15531 c 1.16544,-0.098 0.0477,-1.77088 -0.48887,-0.73169 -0.15148,0.33208 0.12411,0.74453 0.48887,0.73169 z m 8.06945,-8.01739 c 1.16544,-0.098 0.0477,-1.77088 -0.48887,-0.73169 -0.15148,0.33208 0.12411,0.74453 0.48887,0.73169 z m 0.30843,-0.30644 c 1.16544,-0.098 0.0477,-1.77088 -0.48887,-0.73169 -0.15148,0.33208 0.12411,0.74453 0.48887,0.73169 z m -3.99881,3.97301 c 1.16544,-0.098 0.0477,-1.77088 -0.48887,-0.73169 -0.15148,0.33208 0.12411,0.74453 0.48887,0.73169 z m 11.17079,-11.09872 c 1.16544,-0.098 0.0477,-1.77088 -0.48887,-0.73169 -0.15148,0.33208 0.12411,0.74453 0.48887,0.73169 z m -6.94115,6.89636 c 1.16544,-0.098 0.0477,-1.77088 -0.48887,-0.73169 -0.15148,0.33208 0.12411,0.74453 0.48887,0.73169 z m 2.97247,-2.9533 c 1.16544,-0.098 0.0477,-1.77088 -0.48887,-0.73169 -0.15148,0.33208 0.12411,0.74453 0.48887,0.73169 z m -3.47505,3.45263 c 1.16544,-0.098 0.0477,-1.77088 -0.48887,-0.73169 -0.15148,0.33208 0.12411,0.74453 0.48887,0.73169 z m 1.74192,-1.73068 c 1.16544,-0.098 0.0477,-1.77088 -0.48887,-0.73169 -0.15148,0.33208 0.12411,0.74453 0.48887,0.73169 z m 1.17383,-1.16625 c 1.16544,-0.098 0.0477,-1.77088 -0.48887,-0.73169 -0.15148,0.33208 0.12411,0.74453 0.48887,0.73169 z m 0.0303,-0.0301 c 1.16544,-0.098 0.0477,-1.77088 -0.48887,-0.73169 -0.15148,0.33208 0.12411,0.74453 0.48887,0.73169 z m -5.87457,5.83667 c 1.16544,-0.098 0.0477,-1.77088 -0.48887,-0.73169 -0.15148,0.33208 0.12411,0.74453 0.48887,0.73169 z m -2.66017,2.64301 c 1.16544,-0.098 0.0477,-1.77088 -0.48887,-0.73169 -0.15148,0.33208 0.12411,0.74453 0.48887,0.73169 z m 9.32599,-9.26582 c 1.16544,-0.098 0.0477,-1.77088 -0.48887,-0.73169 -0.15148,0.33208 0.12411,0.74453 0.48887,0.73169 z"
       style="fill:#1f77b4;fill-opacity:1;fill-rule:nonzero;stroke:#1f77b4;stroke-width:0.352778;stroke-linecap:butt;stroke-linejoin:round;stroke-miterlimit:10;stroke-dasharray:none;stroke-opacity:1"
       id="path12925" />
    <path
       id="path12929"
       style="fill:none;stroke:#000000;stroke-width:0.4;stroke-linecap:square;stroke-linejoin:miter;stroke-miterlimit:10;stroke-dasharray:none;stroke-dashoffset:0;stroke-opacity:1"
       d="M -148.62023,224.1659 V 114.43584" />
    <path
       d="m 17.142646,231.79314 v 3"
       style="fill:#000000;fill-opacity:1;fill-rule:nonzero;stroke:#000000;stroke-width:0.4;stroke-linecap:butt;stroke-linejoin:round;stroke-miterlimit:10;stroke-dasharray:none;stroke-dashoffset:0;stroke-opacity:1"
       id="path18999" />
    <text
       style="font-style:normal;font-variant:normal;font-weight:normal;font-stretch:normal;font-size:5.64444px;font-family:Arial;-inkscape-font-specification:Arial;writing-mode:lr-tb;fill:#000000;fill-opacity:1;fill-rule:nonzero;stroke:none;stroke-width:0.352778"
       id="text19003"
       x="13.278627"
       y="240.11644"><tspan
         x="13.278627"
         y="240.11644"
         sodipodi:role="line"
         id="tspan19001"
         style="font-style:normal;font-variant:normal;font-weight:normal;font-stretch:normal;font-size:5.64444px;font-family:Arial;-inkscape-font-specification:Arial;stroke-width:0.352778">0.0</tspan></text>
    <path
       d="m 36.852032,231.79314 v 3"
       style="fill:#000000;fill-opacity:1;fill-rule:nonzero;stroke:#000000;stroke-width:0.4;stroke-linecap:butt;stroke-linejoin:round;stroke-miterlimit:10;stroke-dasharray:none;stroke-dashoffset:0;stroke-opacity:1"
       id="path19005" />
    <text
       style="font-style:normal;font-variant:normal;font-weight:normal;font-stretch:normal;font-size:5.64444px;font-family:Arial;-inkscape-font-specification:Arial;writing-mode:lr-tb;fill:#000000;fill-opacity:1;fill-rule:nonzero;stroke:none;stroke-width:0.352778"
       id="text19009"
       x="32.988014"
       y="240.11644"><tspan
         x="32.988014"
         y="240.11644"
         sodipodi:role="line"
         id="tspan19007"
         style="font-style:normal;font-variant:normal;font-weight:normal;font-stretch:normal;font-size:5.64444px;font-family:Arial;-inkscape-font-specification:Arial;stroke-width:0.352778">0.2</tspan></text>
    <path
       d="m 56.56142,231.79314 v 3"
       style="fill:#000000;fill-opacity:1;fill-rule:nonzero;stroke:#000000;stroke-width:0.4;stroke-linecap:butt;stroke-linejoin:round;stroke-miterlimit:10;stroke-dasharray:none;stroke-dashoffset:0;stroke-opacity:1"
       id="path19011" />
    <text
       style="font-style:normal;font-variant:normal;font-weight:normal;font-stretch:normal;font-size:5.64444px;font-family:Arial;-inkscape-font-specification:Arial;writing-mode:lr-tb;fill:#000000;fill-opacity:1;fill-rule:nonzero;stroke:none;stroke-width:0.352778"
       id="text19015"
       x="52.697403"
       y="240.11644"><tspan
         x="52.697403"
         y="240.11644"
         sodipodi:role="line"
         id="tspan19013"
         style="font-style:normal;font-variant:normal;font-weight:normal;font-stretch:normal;font-size:5.64444px;font-family:Arial;-inkscape-font-specification:Arial;stroke-width:0.352778">0.4</tspan></text>
    <path
       d="m 76.27081,231.79314 v 3"
       style="fill:#000000;fill-opacity:1;fill-rule:nonzero;stroke:#000000;stroke-width:0.4;stroke-linecap:butt;stroke-linejoin:round;stroke-miterlimit:10;stroke-dasharray:none;stroke-dashoffset:0;stroke-opacity:1"
       id="path19017" />
    <text
       style="font-style:normal;font-variant:normal;font-weight:normal;font-stretch:normal;font-size:5.64444px;font-family:Arial;-inkscape-font-specification:Arial;writing-mode:lr-tb;fill:#000000;fill-opacity:1;fill-rule:nonzero;stroke:none;stroke-width:0.352778"
       id="text19021"
       x="72.406792"
       y="240.11644"><tspan
         x="72.406792"
         y="240.11644"
         sodipodi:role="line"
         id="tspan19019"
         style="font-style:normal;font-variant:normal;font-weight:normal;font-stretch:normal;font-size:5.64444px;font-family:Arial;-inkscape-font-specification:Arial;stroke-width:0.352778">0.6</tspan></text>
    <path
       d="m 95.980197,231.79314 v 3"
       style="fill:#000000;fill-opacity:1;fill-rule:nonzero;stroke:#000000;stroke-width:0.4;stroke-linecap:butt;stroke-linejoin:round;stroke-miterlimit:10;stroke-dasharray:none;stroke-dashoffset:0;stroke-opacity:1"
       id="path19023" />
    <text
       style="font-style:normal;font-variant:normal;font-weight:normal;font-stretch:normal;font-size:5.64444px;font-family:Arial;-inkscape-font-specification:Arial;writing-mode:lr-tb;fill:#000000;fill-opacity:1;fill-rule:nonzero;stroke:none;stroke-width:0.352778"
       id="text19027"
       x="92.116173"
       y="240.11644"><tspan
         x="92.116173"
         y="240.11644"
         sodipodi:role="line"
         id="tspan19025"
         style="font-style:normal;font-variant:normal;font-weight:normal;font-stretch:normal;font-size:5.64444px;font-family:Arial;-inkscape-font-specification:Arial;stroke-width:0.352778">0.8</tspan></text>
    <path
       d="m 115.68958,231.79314 v 3"
       style="fill:#000000;fill-opacity:1;fill-rule:nonzero;stroke:#000000;stroke-width:0.4;stroke-linecap:butt;stroke-linejoin:round;stroke-miterlimit:10;stroke-dasharray:none;stroke-dashoffset:0;stroke-opacity:1"
       id="path19029" />
    <text
       style="font-style:normal;font-variant:normal;font-weight:normal;font-stretch:normal;font-size:5.64444px;font-family:Arial;-inkscape-font-specification:Arial;writing-mode:lr-tb;fill:#000000;fill-opacity:1;fill-rule:nonzero;stroke:none;stroke-width:0.352778"
       id="text19033"
       x="111.82557"
       y="240.11644"><tspan
         x="111.82557"
         y="240.11644"
         sodipodi:role="line"
         id="tspan19031"
         style="font-style:normal;font-variant:normal;font-weight:normal;font-stretch:normal;font-size:5.64444px;font-family:Arial;-inkscape-font-specification:Arial;stroke-width:0.352778">1.0</tspan></text>
    <path
       d="M 3.0893336,217.69029 H 0.0893337"
       style="fill:#000000;fill-opacity:1;fill-rule:nonzero;stroke:#000000;stroke-width:0.4;stroke-linecap:butt;stroke-linejoin:round;stroke-miterlimit:10;stroke-dasharray:none;stroke-dashoffset:0;stroke-opacity:1"
       id="path19035" />
    <text
       style="font-style:normal;font-variant:normal;font-weight:normal;font-stretch:normal;font-size:5.64444px;font-family:Arial;-inkscape-font-specification:Arial;writing-mode:lr-tb;fill:#000000;fill-opacity:1;fill-rule:nonzero;stroke:none;stroke-width:0.352778"
       id="text19039"
       x="-8.8367596"
       y="219.55891"><tspan
         x="-8.8367596"
         y="219.55891"
         sodipodi:role="line"
         id="tspan19037"
         style="font-style:normal;font-variant:normal;font-weight:normal;font-stretch:normal;font-size:5.64444px;font-family:Arial;-inkscape-font-specification:Arial;stroke-width:0.352778">0.0</tspan></text>
    <path
       d="M 3.0893336,198.10806 H 0.0893337"
       style="fill:#000000;fill-opacity:1;fill-rule:nonzero;stroke:#000000;stroke-width:0.4;stroke-linecap:butt;stroke-linejoin:round;stroke-miterlimit:10;stroke-dasharray:none;stroke-dashoffset:0;stroke-opacity:1"
       id="path19041" />
    <text
       style="font-style:normal;font-variant:normal;font-weight:normal;font-stretch:normal;font-size:5.64444px;font-family:Arial;-inkscape-font-specification:Arial;writing-mode:lr-tb;fill:#000000;fill-opacity:1;fill-rule:nonzero;stroke:none;stroke-width:0.352778"
       id="text19045"
       x="-8.8367596"
       y="199.97668"><tspan
         x="-8.8367596"
         y="199.97668"
         sodipodi:role="line"
         id="tspan19043"
         style="font-style:normal;font-variant:normal;font-weight:normal;font-stretch:normal;font-size:5.64444px;font-family:Arial;-inkscape-font-specification:Arial;stroke-width:0.352778">0.2</tspan></text>
    <path
       d="M 3.0893336,178.52583 H 0.0893337"
       style="fill:#000000;fill-opacity:1;fill-rule:nonzero;stroke:#000000;stroke-width:0.4;stroke-linecap:butt;stroke-linejoin:round;stroke-miterlimit:10;stroke-dasharray:none;stroke-dashoffset:0;stroke-opacity:1"
       id="path19047" />
    <text
       style="font-style:normal;font-variant:normal;font-weight:normal;font-stretch:normal;font-size:5.64444px;font-family:Arial;-inkscape-font-specification:Arial;writing-mode:lr-tb;fill:#000000;fill-opacity:1;fill-rule:nonzero;stroke:none;stroke-width:0.352778"
       id="text19051"
       x="-8.8367596"
       y="180.39445"><tspan
         x="-8.8367596"
         y="180.39445"
         sodipodi:role="line"
         id="tspan19049"
         style="font-style:normal;font-variant:normal;font-weight:normal;font-stretch:normal;font-size:5.64444px;font-family:Arial;-inkscape-font-specification:Arial;stroke-width:0.352778">0.4</tspan></text>
    <path
       d="M 3.0893336,158.9436 H 0.0893337"
       style="fill:#000000;fill-opacity:1;fill-rule:nonzero;stroke:#000000;stroke-width:0.4;stroke-linecap:butt;stroke-linejoin:round;stroke-miterlimit:10;stroke-dasharray:none;stroke-dashoffset:0;stroke-opacity:1"
       id="path19053" />
    <text
       style="font-style:normal;font-variant:normal;font-weight:normal;font-stretch:normal;font-size:5.64444px;font-family:Arial;-inkscape-font-specification:Arial;writing-mode:lr-tb;fill:#000000;fill-opacity:1;fill-rule:nonzero;stroke:none;stroke-width:0.352778"
       id="text19057"
       x="-8.8367596"
       y="160.81223"><tspan
         x="-8.8367596"
         y="160.81223"
         sodipodi:role="line"
         id="tspan19055"
         style="font-style:normal;font-variant:normal;font-weight:normal;font-stretch:normal;font-size:5.64444px;font-family:Arial;-inkscape-font-specification:Arial;stroke-width:0.352778">0.6</tspan></text>
    <path
       d="M 3.0893336,139.36137 H 0.0893337"
       style="fill:#000000;fill-opacity:1;fill-rule:nonzero;stroke:#000000;stroke-width:0.4;stroke-linecap:butt;stroke-linejoin:round;stroke-miterlimit:10;stroke-dasharray:none;stroke-dashoffset:0;stroke-opacity:1"
       id="path19059" />
    <text
       style="font-style:normal;font-variant:normal;font-weight:normal;font-stretch:normal;font-size:5.64444px;font-family:Arial;-inkscape-font-specification:Arial;writing-mode:lr-tb;fill:#000000;fill-opacity:1;fill-rule:nonzero;stroke:none;stroke-width:0.352778"
       id="text19063"
       x="-8.8367596"
       y="141.23"><tspan
         x="-8.8367596"
         y="141.23"
         sodipodi:role="line"
         id="tspan19061"
         style="font-style:normal;font-variant:normal;font-weight:normal;font-stretch:normal;font-size:5.64444px;font-family:Arial;-inkscape-font-specification:Arial;stroke-width:0.352778">0.8</tspan></text>
    <path
       d="M 3.0893336,119.77914 H 0.0893337"
       style="fill:#000000;fill-opacity:1;fill-rule:nonzero;stroke:#000000;stroke-width:0.4;stroke-linecap:butt;stroke-linejoin:round;stroke-miterlimit:10;stroke-dasharray:none;stroke-dashoffset:0;stroke-opacity:1"
       id="path19065" />
    <text
       style="font-style:normal;font-variant:normal;font-weight:normal;font-stretch:normal;font-size:5.64444px;font-family:Arial;-inkscape-font-specification:Arial;writing-mode:lr-tb;fill:#000000;fill-opacity:1;fill-rule:nonzero;stroke:none;stroke-width:0.352778"
       id="text19069"
       x="-8.8367596"
       y="121.64777"><tspan
         x="-8.8367596"
         y="121.64777"
         sodipodi:role="line"
         id="tspan19067"
         style="font-style:normal;font-variant:normal;font-weight:normal;font-stretch:normal;font-size:5.64444px;font-family:Arial;-inkscape-font-specification:Arial;stroke-width:0.352778">1.0</tspan></text>
    <path
       transform="scale(0.26458333)"
       d="m 437.25195,450.70898 c -1.67387,0.24076 -2.48499,1.88439 -3.71289,2.86914 -11.89651,11.83117 -23.83197,23.69395 -35.67773,35.46094 -1.54776,1.19437 -2.36351,3.07669 -3.96289,3.92383 -2.24379,2.35234 -4.69504,4.51354 -6.85156,6.94922 -0.79681,0.95667 -2.17887,1.77353 -3.0293,2.94141 -1.19346,1.02602 -1.90759,2.2012 -3.21289,3.11914 -3.06872,3.0489 -6.02304,6.09329 -9.14063,9.08203 -3.41247,3.43948 -6.81595,6.8125 -10.29492,10.22851 -1.86791,1.80968 -3.42589,3.76876 -5.44922,5.41407 -2.07197,2.20388 -4.3618,4.25054 -6.4082,6.48046 -1.59266,1.54746 -3.39911,3.28467 -5.0918,4.94532 -1.00393,1.61979 -3.35815,2.46131 -3.77539,4.53711 -2.42377,0.74044 -3.65236,3.3719 -5.62695,4.80468 -1.38118,1.58657 -3.09052,2.85783 -4.34766,4.53711 -0.0125,0.15964 -0.005,0.29092 -0.006,0.4336 -2.52911,0.95589 -3.83587,3.86902 -5.92187,5.28515 -2.12657,1.59179 -2.46858,3.95931 -4.86719,4.78907 -1.65839,1.85026 -3.43666,3.39214 -5.17773,5.1875 -1.53216,1.63029 -3.28301,3.00752 -4.66016,4.80468 -1.69595,1.64712 -2.65843,3.0255 -4.63281,4.38477 -1.79769,1.9101 -3.68232,3.66323 -5.51953,5.54687 -1.59396,1.4719 -2.1818,3.09696 -4.23633,4.14453 -1.39413,1.63015 -2.76498,2.84007 -4.32032,4.33204 -1.25069,1.17407 -2.40484,2.49231 -3.66406,3.60156 -0.88906,2.42249 -3.1144,2.64327 -4.73437,4.7832 -1.87559,1.72732 -3.70472,3.76918 -5.625,5.50977 -1.23943,1.75283 -3.09247,2.88086 -4.58399,4.56445 -1.60828,1.50769 -2.98533,3.23265 -4.66211,4.62109 -1.19926,1.34423 -2.63994,2.5838 -3.92578,3.90039 -2.85066,1.23387 -1.27769,6.38035 1.79102,3.86133 1.30889,-1.56306 3.09574,-2.7633 4.2539,-4.48242 1.61015,-1.46426 3.30705,-2.81852 4.66993,-4.5918 2.08759,-1.39615 3.27621,-3.67482 5.24023,-5 1.54609,-1.77501 3.39694,-3.24401 4.98047,-5.02734 2.26596,-1.33179 2.61609,-4.3553 5.02148,-4.9082 1.21677,-1.3324 2.5437,-2.55433 3.84961,-3.82617 1.53463,-1.62853 2.81849,-3.04576 4.50391,-4.48047 0.98563,-1.98422 2.58042,-2.40549 3.83008,-4.04883 1.96838,-1.57051 3.66157,-3.42528 5.40039,-5.24414 1.90405,-1.13114 1.98636,-3.44334 4.17383,-4.01953 1.36145,-1.43709 2.83765,-2.84472 4.24804,-4.22266 1.45702,-1.40965 2.86339,-3.01591 4.35352,-4.32227 2.39783,-1.51192 2.71041,-4.28713 5.12305,-5.15234 1.88813,-1.81901 3.47529,-3.62926 5.46289,-5.36523 0.86479,-0.58283 1.65655,-1.63481 1.83203,-2.60547 1.25316,-0.33955 2.70038,-1.48044 3.38086,-2.57422 1.98198,-2.19016 4.38592,-4.082 6.26953,-6.43555 0.42808,-1.11186 2.17969,-1.53835 2.96289,-2.73828 1.52999,-1.87272 3.61189,-3.33599 5.1582,-5.26562 1.66435,-1.60245 3.29662,-3.21486 5.04688,-4.87305 2.2592,-2.18442 4.274,-4.54956 6.58593,-6.54492 3.08844,-3.07983 6.15457,-6.19013 9.28711,-9.22656 3.58195,-3.65976 7.19312,-7.17962 10.8418,-10.77149 1.46476,-1.38074 2.55417,-2.86986 4.09766,-4.07031 0.84253,-1.07872 2.25146,-1.77007 2.63867,-3.16211 2.47926,-1.33402 4.13646,-3.91358 6.29101,-5.71094 1.30734,-1.09085 1.84856,-2.59965 3.32227,-3.35351 7.74399,-7.60623 15.40085,-15.2946 23.16797,-22.96485 5.60723,-5.62889 11.32854,-11.19335 16.90625,-16.83203 1.05721,-1.23209 0.034,-3.27496 -1.57227,-3.22266 z M 260.41211,626.4082 c -1.76738,0.40396 -2.71555,2.09815 -4.05469,3.20899 -1.08369,1.41702 -2.336,2.30238 -3.60742,3.58984 -1.07347,2.28431 -3.86028,3.33015 -5.56836,5.52735 -1.59845,1.6721 -3.28497,3.20629 -4.67969,4.93554 -1.44276,2.17622 -3.88478,3.02302 -5.67578,5.37891 -1.62083,1.73544 -3.40221,3.17593 -4.84179,5.06445 -2.10186,1.46427 -3.57639,3.59106 -5.51172,5.19531 -1.18314,1.63491 -2.93351,2.79431 -4.35938,4.33008 -1.81958,1.88243 -3.63939,3.63495 -5.38672,5.50781 -2.54041,1.96252 -4.20863,5.05443 -6.84765,6.64844 -1.82614,2.23865 -3.73899,3.78664 -5.93555,5.89649 -1.62669,1.49975 -2.71678,3.17878 -4.41992,4.41015 -1.74162,2.45484 -3.47569,3.72547 -5.8086,5.75391 -2.19139,2.18547 -4.33599,4.40426 -6.56445,6.52344 -0.91598,1.29847 -3.01146,2.46441 -3.625,3.93359 -1.68508,0.89848 -2.80709,2.71619 -4.2207,3.98047 -1.62773,1.47983 -2.98541,3.01333 -4.63086,4.48047 -2.65588,2.70497 2.05989,4.92105 3.5,2.15625 1.79386,-2.03894 3.93274,-3.86781 5.86328,-5.82031 0.70817,-0.57225 1.54314,-1.43554 1.99805,-2.30274 1.46953,-0.61918 2.64499,-2.70676 3.95117,-3.60742 2.4003,-2.51339 4.95971,-4.87166 7.39453,-7.39453 1.47841,-2.47128 3.37282,-3.34398 5.44141,-5.35938 1.09812,-1.73816 3.28177,-2.81802 4.56835,-4.68359 2.0353,-2.5626 4.87783,-3.8428 6.19141,-6.875 3.0845,-1.42666 5.00392,-4.45014 7.4043,-6.80664 2.10765,-1.48649 3.73666,-3.58919 5.67383,-5.31836 1.57678,-1.86788 3.41551,-3.36348 5.17578,-5.14258 1.7917,-2.0022 3.91397,-3.62985 5.51172,-5.77734 1.98641,-1.24082 3.26232,-3.35769 5.09179,-4.75782 1.20826,-2.64264 4.45265,-3.8231 6.34571,-6.40429 1.69076,-1.43441 2.77549,-3.14305 4.53711,-4.40821 0.24086,-2.23158 2.96067,-1.87614 3.89257,-3.99218 1.02672,-1.07437 2.4565,-2.23451 3.56641,-3.41992 1.75641,-1.20851 2.57522,-4.08672 -0.36914,-4.45118 z m -87.48633,86.91992 c -1.97564,0.60533 -3.24083,2.42637 -4.59766,3.93165 -1.5798,2.60042 -4.05709,3.65256 -6.42382,6.20117 -0.8915,2.15044 -3.65071,2.88366 -5.04297,5.04687 -1.21967,1.87635 -3.43499,2.69382 -4.35352,4.83008 -2.17914,1.09712 -3.60976,3.32857 -5.47461,4.89844 -1.82144,2.04688 -3.86296,3.79364 -5.83593,5.79883 -1.37794,2.1239 -3.78309,3.49579 -5.59766,5.58398 -1.07598,1.56888 -2.56938,2.40094 -3.89649,3.8457 -1.99009,1.00778 -2.99216,4.37173 -3.80468,4.60157 -2.00225,0.62445 -3.21963,2.52937 -4.73633,3.9414 -1.64766,1.75389 -3.63674,3.26645 -5.02344,5.27735 -2.32487,1.64583 -4.12686,3.92507 -6.24805,5.86718 -2.53901,2.5448 -5.09671,5.13018 -7.68164,7.63086 -1.39869,1.63355 -3.32976,2.90044 -4.406246,4.78907 -2.093196,1.59567 -3.721205,3.4287 -5.785156,5.3789 -0.56128,1.52168 -2.352976,2.38086 -3.363281,3.49219 -1.171967,0.68203 -1.938349,2.04998 -3.058594,2.8457 -0.785295,0.94311 -1.592619,1.66131 -2.490234,2.49024 -0.743301,0.67453 -1.385372,1.44418 -2.119141,2.11523 -0.674853,1.24381 -2.674363,1.76283 -2.703125,3.49219 0.773651,1.59564 -1.697726,-0.0514 -2.253906,1.4082 -1.16733,1.45263 -2.532675,2.50289 -3.849609,3.86719 -0.832857,0.99042 -2.12588,1.66162 -2.566407,2.96484 -1.411419,0.4811 -2.143125,1.95248 -3.271484,2.81641 -1.191674,1.163 -2.333213,2.39285 -3.560547,3.51367 -1.128631,1.4239 -2.884649,2.38449 -3.621094,4.07617 -0.155828,0.92049 -2.397489,0.77507 -2.125,2.3711 -0.496633,0.0231 -0.969151,0.22321 -1.322265,0.57617 -0.375043,0.37493 -0.585938,0.88364 -0.585938,1.41406 0,0.53042 0.210895,1.03898 0.585938,1.41406 0.375042,0.37493 0.883655,0.58594 1.414062,0.58594 0.530408,0 1.039009,-0.21104 1.414063,-0.58594 0.373656,-0.37354 0.584386,-0.8799 0.585937,-1.4082 1.035133,-0.0596 2.056473,-0.75842 1.994141,-1.97461 1.87855,-0.34923 2.826279,-2.30702 4.232422,-3.42969 1.181918,-1.21908 2.453326,-2.34533 3.59375,-3.61132 0.96935,-1.02267 2.217079,-1.86265 2.947265,-3.10547 0.92504,-0.7307 2.044474,-1.58204 2.779297,-2.66211 1.497347,-1.13337 2.467778,-2.63775 3.896484,-3.75781 1.127796,-0.4198 0.952807,-2.30908 1.046876,-2.59376 1.543929,0.52007 2.86395,-1.02225 3.5,-2.23242 0.969218,-0.3753 1.539866,-1.27868 2.3125,-1.93945 0.905219,-0.84688 1.578589,-1.81172 2.53125,-2.55859 0.978814,-0.90539 1.886811,-1.89927 2.810546,-2.80469 0.363363,-0.22026 0.600193,-0.52702 0.738282,-0.86719 1.004108,-1.03003 1.850194,-2.60461 3.27539,-3.10547 1.964519,-2.05663 3.814574,-3.67441 5.423824,-5.75976 2.15985,-1.30447 3.64569,-3.48974 5.5625,-5.11524 3.78322,-3.81524 7.66548,-7.62144 11.47461,-11.42187 1.67246,-1.90519 3.70865,-3.434 5.3086,-5.44532 1.91332,-1.54733 3.5468,-3.37501 5.1914,-5.18359 -0.56143,-2.31163 3.36662,-1.4858 4.23047,-4.1543 1.7884,-1.15377 2.57924,-3.10285 4.32422,-4.12695 1.86412,-1.71617 3.45274,-3.86723 5.13672,-5.28516 2.12812,-1.60909 3.68214,-3.85068 5.67578,-5.45898 1.78582,-1.88889 3.78704,-3.61973 5.48242,-5.58984 1.69274,-1.3677 3.05017,-3.35796 4.8711,-4.69727 2.19941,-1.62418 3.14387,-4.3441 5.4082,-5.4043 2.69164,-2.4986 3.68772,-4.93494 6.67773,-6.60156 1.46808,-1.57905 6.01104,-4.93505 1.37305,-6.18555 z M 53.878906,831.60742 c -0.530407,0 -1.039008,0.21105 -1.414062,0.58594 -0.243536,0.24346 -0.409691,0.54545 -0.501953,0.87109 -0.330215,0.0914 -0.636301,0.25946 -0.882813,0.50586 -0.113939,0.11391 -0.206754,0.24343 -0.289062,0.37891 -0.140468,0.0839 -0.274955,0.1793 -0.392578,0.29687 -0.375043,0.37493 -0.583985,0.88365 -0.583985,1.41407 0,0.53042 0.208942,1.03898 0.583985,1.41406 0.375042,0.37493 0.885608,0.58594 1.416015,0.58594 0.530408,0 1.039009,-0.21105 1.414063,-0.58594 0.114574,-0.11454 0.208432,-0.24452 0.291015,-0.38086 0.139048,-0.0834 0.272094,-0.17839 0.388672,-0.29492 0.243535,-0.24346 0.409691,-0.54545 0.501953,-0.8711 0.330215,-0.0914 0.6363,-0.25945 0.882813,-0.50586 0.375042,-0.37492 0.585937,-0.88364 0.585937,-1.41406 0,-0.53042 -0.210895,-1.03898 -0.585937,-1.41406 -0.375043,-0.37493 -0.883655,-0.58594 -1.414063,-0.58594 z m -4.93164,4.90039 c -0.530408,0 -1.039009,0.21105 -1.414063,0.58594 -0.375042,0.37493 -0.585937,0.88364 -0.585937,1.41406 0,0.26165 0.05145,0.51821 0.148437,0.75586 0,0 -0.002,-0.002 -0.002,-0.002 -0.240372,-0.0996 -0.498468,-0.15235 -0.763672,-0.15234 -0.530407,0 -1.040962,0.21104 -1.416016,0.58593 -0.375042,0.37493 -0.583984,0.88365 -0.583984,1.41407 0,0.53041 0.208942,1.03898 0.583984,1.41406 0.375043,0.37493 0.885609,0.58593 1.416016,0.58594 0.530408,0 1.039009,-0.21105 1.414063,-0.58594 0.375042,-0.37493 0.585937,-0.88365 0.585937,-1.41406 0,-0.26101 -0.05191,-0.51675 -0.148437,-0.75391 0.240371,0.0996 0.500421,0.15234 0.765625,0.15234 0.530407,0 1.039008,-0.21104 1.414062,-0.58593 0.375043,-0.37493 0.585938,-0.88365 0.585938,-1.41407 0,-0.53042 -0.210895,-1.03898 -0.585938,-1.41406 -0.375042,-0.37493 -0.883655,-0.58594 -1.414062,-0.58594 z m -6.650391,6.60938 c -0.530408,0 -1.039009,0.20909 -1.414063,0.58398 -0.375042,0.37493 -0.585937,0.8856 -0.585937,1.41602 0,0.53042 0.210895,1.03898 0.585937,1.41406 0.375043,0.37493 0.883655,0.58594 1.414063,0.58594 0.530408,0 1.039009,-0.21105 1.414063,-0.58594 0.375042,-0.37493 0.585937,-0.88364 0.585937,-1.41406 0,-0.53042 -0.210895,-1.04094 -0.585937,-1.41602 -0.375043,-0.37493 -0.883655,-0.58398 -1.414063,-0.58398 z M 31.433594,853.9082 c -0.530407,0 -1.039009,0.21105 -1.414063,0.58594 -0.375054,0.37493 -0.585937,0.88364 -0.585937,1.41406 0,0.53042 0.210882,1.03899 0.585937,1.41407 0.375054,0.37492 0.883656,0.58593 1.414063,0.58593 0.530407,0 1.039009,-0.21104 1.414062,-0.58593 0.375054,-0.37493 0.585938,-0.88365 0.585938,-1.41407 0,-0.53042 -0.210882,-1.03898 -0.585938,-1.41406 -0.375054,-0.37493 -0.883655,-0.58594 -1.414062,-0.58594 z"
       style="fill:#1f77b4;fill-opacity:1;fill-rule:nonzero;stroke:#1f77b4;stroke-width:1.33333;stroke-linecap:butt;stroke-linejoin:round;stroke-miterlimit:10;stroke-dasharray:none;stroke-opacity:1"
       id="path19089" />
    <path
       id="path31081"
       style="fill:none;stroke:#000000;stroke-width:0.4;stroke-linecap:square;stroke-linejoin:miter;stroke-miterlimit:10;stroke-dasharray:none;stroke-dashoffset:0;stroke-opacity:1"
       d="M 2.9482226,224.80132 V 114.43674" />
    <path
       d="m 267.2581,119.25008 c -0.50173,0.10167 -0.76052,0.60988 -1.13998,0.91571 -1.04127,1.05609 -2.12135,2.08996 -3.16156,3.15588 -0.42688,0.41839 -0.88196,0.8652 -1.32654,1.30328 -0.63431,0.67435 -1.33543,1.27309 -1.9327,1.97766 -0.18572,0.40844 -0.94563,0.57019 -1.0599,1.15548 -1.06127,0.12953 -0.94924,2.10377 0.14677,1.14877 0.42563,-0.40936 0.77268,-0.76416 1.21853,-1.17357 0.12031,-0.53321 0.70512,-0.58926 1.02267,-1.017 0.77751,-0.78684 1.57525,-1.57206 2.3704,-2.35386 0.68149,-0.69872 1.43182,-1.40779 2.12958,-2.12648 0.71946,-0.72297 1.46161,-1.41982 2.17146,-2.16163 0.24043,-0.32984 -0.0262,-0.83976 -0.43873,-0.82424 z m -10.02575,9.96064 c -0.58454,0.17881 -0.90143,0.76794 -1.36787,1.14256 -0.56914,0.51663 -1.281,1.39847 -1.48725,1.69447 -0.63111,0.19003 -0.94982,0.85526 -1.4547,1.23765 -0.40841,0.46566 -0.92806,0.8282 -1.29863,1.33842 0.14883,0.56582 -1.08791,0.52587 -1.09813,1.25005 -0.77364,0.23204 -0.91085,1.08552 -1.62057,1.39372 -0.84123,0.34733 -0.80162,1.99198 0.27855,1.19786 0.54364,-0.38073 0.73189,-1.00863 1.28466,-1.29036 0.46913,-0.63834 1.07305,-0.90786 1.4604,-1.63969 0.11176,-0.17299 0.95085,-0.51385 1.26193,-1.03405 0.51408,-0.51645 1.0207,-1.04424 1.56061,-1.55029 0.12976,-0.67637 0.19744,-0.47774 0.7638,-0.76895 0.4449,-0.55096 1.03354,-1.00182 1.55546,-1.53582 0.42453,-0.36584 1.22976,-1.20728 0.16174,-1.43557 z m -9.33793,9.25731 c -1.06408,0.0496 -1.34529,2.18079 -0.032,1.32757 0.45186,-0.31558 0.96276,-1.18005 0.032,-1.32757 z m -1.36064,1.37201 c -1.42214,0.22364 -0.18125,2.08492 0.48886,0.73174 0.15152,-0.33212 -0.12404,-0.7445 -0.48886,-0.73174 z m -0.94465,0.93896 c -0.96126,0.29091 -1.32807,1.60584 -1.9761,1.80247 -0.74373,0.49736 -0.91209,1.28796 -1.65055,1.59887 -0.38633,0.41207 -0.70145,0.71555 -1.11776,1.09606 -0.20251,0.52544 -1.64514,1.20785 -0.37931,1.65158 0.62978,-0.29024 0.82518,-0.85078 1.43248,-1.20716 0.62757,-0.45159 0.96718,-1.34454 1.59732,-1.58647 0.74786,-0.66517 0.90871,-1.28846 1.68826,-1.71824 0.44431,-0.3703 1.61817,-1.33154 0.40566,-1.63711 z m -6.25439,6.21409 c -1.16537,0.0981 -0.0477,1.77087 0.48885,0.73174 0.15153,-0.33205 -0.12418,-0.7445 -0.48885,-0.73174 z m -0.79479,0.78962 c -0.69614,0.018 -0.43637,0.88554 -1.09244,0.86868 -0.4272,0.37322 -1.34225,1.29788 -0.27182,1.54513 0.84424,-0.40196 1.13666,-1.19296 1.85312,-1.68207 0.15153,-0.33204 -0.1242,-0.74451 -0.48886,-0.73174 z m -2.29857,2.28358 c -0.69895,0.041 -1.10535,1.19715 -1.08934,1.28881 -0.77298,-0.22769 -0.47674,0.81953 -1.17305,0.74259 -0.4936,0.63751 -1.15803,1.0975 -1.73478,1.73323 -0.74921,0.66859 0.62914,1.38678 0.90847,0.51728 0.64485,-0.61993 1.30942,-1.1363 1.72961,-1.87637 0.19904,-0.10413 0.94651,-0.45361 0.50592,-0.94723 0.65533,0.51269 2.14581,-1.29979 0.85317,-1.45831 z m -5.26117,5.22707 c -0.81996,0.3992 -1.21587,1.17119 -1.91513,1.74408 -0.22304,0.31959 -1.21137,0.8377 -0.3607,1.33429 0.80904,0.0764 0.92533,-0.85274 1.57458,-1.16014 0.31317,-0.51329 1.80375,-1.12846 0.90382,-1.87792 z m -3.05253,3.03341 c -0.76074,0.38546 -1.16115,1.17738 -1.83141,1.64641 -0.96011,0.52534 0.5732,1.60718 0.75034,0.53588 0.63191,-0.40995 0.97871,-0.97071 1.56993,-1.45055 0.15152,-0.33205 -0.1242,-0.74451 -0.48886,-0.73174 z m -2.39779,2.38228 c -0.723,0.187 -1.08543,1.09544 -1.58233,1.40715 -1.04714,0.5876 0.67236,1.61716 0.75396,0.47387 0.6128,-0.27028 1.83016,-1.20729 1.03095,-1.84071 z m -2.17351,2.15956 c -0.76821,0.0761 -1.66144,1.68825 -0.33899,1.55546 0.46739,-0.34541 1.49494,-1.29389 0.33899,-1.55546 z m -1.49965,1.48983 c -1.01227,8e-4 -0.96422,1.83721 0.10336,1.17254 0.46616,-0.3128 0.66768,-1.08004 -0.10336,-1.17254 z m -1.19165,1.18391 c -1.16538,0.0981 -0.0477,1.77087 0.48885,0.73174 0.15153,-0.33204 -0.1242,-0.74451 -0.48885,-0.73174 z m -1.74615,1.73478 c -0.42933,-0.0226 -0.69818,0.54674 -0.40928,0.86454 0.25479,0.34588 0.86609,0.19394 0.92811,-0.23151 0.0716,-0.31709 -0.19324,-0.64184 -0.51883,-0.63303 z m -0.81701,0.81183 c -0.38055,0.017 -0.57925,0.40286 -0.8232,0.63407 -0.20376,0.19352 0.18889,0.66704 -0.1881,0.44855 -0.35173,-0.0645 -0.68641,0.30074 -0.58705,0.64544 -0.46814,-0.14971 -0.59634,0.42531 -0.91157,0.55707 -0.2307,0.16446 -0.42857,0.47688 -0.47646,0.68213 -0.40859,-0.0649 -0.50111,0.48506 -0.61081,0.60513 -0.34451,0.0152 -0.68012,0.36305 -0.63097,0.71572 -0.43316,-0.0938 -0.78511,0.46131 -0.52038,0.81494 0.21981,0.36945 0.8429,0.27759 0.94671,-0.13953 -0.0611,-0.36005 0.44196,-0.16155 0.57877,-0.48782 0.22417,-0.17606 0.0383,-0.54266 0.39068,-0.47284 0.42181,-0.0506 0.22744,-0.64034 0.62218,-0.58756 0.37294,-0.2324 0.52878,-0.61641 0.89659,-0.83923 0.20584,-0.17565 -0.0214,-0.55449 0.33279,-0.45062 0.43972,-0.005 0.43536,-0.68105 0.41083,-0.75964 0.41596,0.19941 0.6798,-0.23421 0.94413,-0.4625 0.33438,-0.3177 0.0885,-0.91431 -0.37414,-0.90331 z m -5.79602,5.75831 c -0.32988,0.0233 -0.62536,0.32524 -0.69092,0.64027 -0.0645,0.42527 0.47488,0.74882 0.82011,0.49299 0.25561,-0.19074 0.53179,-0.51908 0.33744,-0.85318 -0.0888,-0.16998 -0.27486,-0.28183 -0.46663,-0.28008 z m -2.32079,2.30632 c -0.45187,-0.02 -0.45067,0.52494 -0.83148,0.60874 -0.15947,0.23191 -0.12155,0.45017 -0.45733,0.46871 -0.27461,0.2551 -0.56962,0.54423 -0.7736,0.82269 -0.26106,0.2079 -0.52607,0.41628 -0.71727,0.70228 -0.19602,0.40913 0.28228,0.88747 0.69143,0.69143 0.28493,-0.19108 0.49535,-0.45209 0.70383,-0.71158 0.28165,-0.20209 0.57227,-0.49707 0.82941,-0.77101 -0.0158,-0.43762 0.52227,-0.25505 0.60255,-0.6749 0.2699,-0.13448 0.67518,-0.52456 0.39274,-0.90072 -0.0956,-0.14553 -0.26618,-0.23686 -0.44028,-0.23564 z m -3.47628,3.45353 c -0.33928,0.0285 -0.64095,0.34034 -0.71365,0.66301 -0.069,0.44835 0.52701,0.76762 0.86196,0.46147 0.2596,-0.2014 0.52863,-0.56033 0.29198,-0.88883 -0.0956,-0.14552 -0.26618,-0.23687 -0.44029,-0.23565 z m -1.69757,1.68672 c -0.453,-0.0243 -0.71186,0.60021 -0.37414,0.90331 0.30306,0.33773 0.92767,0.0788 0.90331,-0.37414 0.006,-0.2846 -0.24435,-0.53483 -0.52917,-0.52917 z m -0.9493,0.85111 c -0.39693,0.0368 -0.34997,0.59005 -0.75085,0.61857 -0.26187,0.19174 -0.0757,0.57049 -0.46457,0.52038 -0.42796,0.15083 -0.42792,0.82687 0,0.97772 0.35772,0.16894 0.80707,-0.18083 0.72347,-0.56948 0.53036,0.11767 0.49273,-0.56052 0.9157,-0.61081 0.36284,-0.26942 0.16611,-0.91393 -0.28577,-0.93379 l -0.0522,-0.003 c -0.0307,-0.002 -0.0593,-0.002 -0.0858,0 z m -3.05872,3.13056 c -0.48981,0.05 -0.51003,0.56661 -0.93018,0.72295 -0.4938,0.72547 0.91357,1.20354 0.96583,0.33228 0.66838,-0.0383 0.63747,-1.0562 -0.0357,-1.05523 z m -1.33222,1.31775 c -0.75828,-0.0207 -0.83631,1.29571 0.005,1.15238 0.62316,-0.11825 0.73695,-1.12819 -0.005,-1.15238 z m -2.05207,2.04535 c -0.61564,0.0224 -1.10924,1.06048 -0.3204,1.26297 0.60243,0.1 1.23243,-0.90455 0.52297,-1.22266 l -0.0987,-0.03 z m -0.98909,0.98237 c -0.507,0.0962 -0.56889,0.60136 -1.02681,0.80357 -0.18747,0.32112 -0.11315,0.52118 -0.54002,0.55035 -0.65827,0.38001 0.11053,1.39711 0.64802,0.83406 0.2183,-0.30937 0.11589,-0.55101 0.55966,-0.56999 0.28643,-0.41142 0.63137,-0.57202 0.87798,-0.98495 0.0726,-0.31568 -0.19501,-0.64246 -0.51883,-0.63304 z m -3.31762,3.29644 c -0.56612,8e-4 -0.84893,0.86996 -0.87851,1.01493 -0.636,-0.10834 -0.56098,0.66368 -1.11104,0.74672 -0.60868,0.28985 -0.26931,1.31035 0.39791,1.03766 0.48591,-0.14292 0.40136,-0.80338 0.88005,-0.83147 0.44631,-0.20997 -0.0601,-0.86427 0.52297,-0.62942 0.49753,-0.15943 1.07924,-0.96472 0.39119,-1.29811 l -0.0987,-0.03 z m -2.87683,2.85822 c -0.90575,-0.001 -0.45938,1.47302 0.29352,0.96946 0.43491,-0.26613 0.21596,-0.98888 -0.29352,-0.96946 z m -1.06505,1.05782 c -0.56095,0.008 -0.39637,0.6886 -0.93018,0.70745 -0.64059,0.64017 0.7169,1.36625 0.89349,0.47801 0.19636,-0.19337 0.90452,-0.5553 0.41082,-1.03043 -0.0977,-0.0985 -0.23537,-0.15558 -0.37413,-0.15503 z m -2.97243,2.95383 c -0.55266,0.0974 -0.69017,0.68343 -1.13998,0.92604 -0.69962,0.49004 0.39889,1.43396 0.77773,0.67076 0.25024,-0.4201 0.92107,-0.57324 0.88108,-1.17151 -0.0439,-0.24213 -0.27273,-0.42977 -0.51883,-0.42529 z m -2.70578,2.60191 c -0.37628,0.002 -0.43102,0.57061 -0.50126,0.66972 -0.87603,-0.14164 -0.6945,1.35657 0.12351,1.01079 0.46882,-0.0732 0.11099,-0.78125 0.5612,-0.62528 0.61682,-0.10993 0.52362,-1.05952 -0.10387,-1.048 -0.0281,-0.005 -0.0545,-0.007 -0.0796,-0.007 z m -1.33222,1.40973 c -0.48115,0.096 -0.66046,0.59181 -1.06763,0.8263 -0.59904,0.35855 -0.0826,1.36637 0.54518,0.95447 0.27855,-0.25484 0.51635,-0.5598 0.77773,-0.78859 0.47588,-0.24383 0.28108,-1.00653 -0.25528,-0.99218 z m -1.74614,1.64227 c -0.40084,0.003 -0.4163,0.63753 -0.50127,0.69764 -0.47129,-0.0401 -0.67369,0.4378 -0.96996,0.70021 -0.58411,0.18263 -0.51437,1.22421 0.21497,1.09399 0.44161,-0.19733 0.62777,-0.66206 1.03146,-0.90072 0.2941,-0.21791 -0.0587,-0.69629 0.41393,-0.53485 0.61682,-0.10992 0.52362,-1.05951 -0.10387,-1.048 -0.0303,-0.006 -0.0585,-0.008 -0.0853,-0.008 z m -2.66961,2.74506 c -0.90607,-0.002 -0.45968,1.47345 0.29352,0.96945 0.43492,-0.26612 0.21596,-0.98887 -0.29352,-0.96945 z m -2.99878,2.97966 c -0.76528,-0.0204 -0.91715,1.31571 -0.0367,1.18701 0.61056,-0.14483 0.84064,-1.12374 0.0367,-1.18701 z m -2.50166,2.48512 c -0.6607,-0.0491 -0.31141,0.8601 -0.86971,0.70331 -0.83798,0.34597 0.1408,1.53718 0.64285,0.78239 0.13152,-0.3276 0.002,-0.50178 0.42943,-0.46767 0.52939,-0.20427 0.36596,-1.03085 -0.20257,-1.01803 z m -2.3704,2.35489 c -0.62796,-0.006 -0.34493,0.78392 -0.92501,0.71624 -0.24258,0.51005 -1.15008,0.6959 -0.9188,1.40198 -0.6062,-0.36633 -0.73001,0.60915 -0.90796,0.61599 -0.90576,-0.001 -0.45938,1.47302 0.29353,0.96944 0.37938,-0.24437 0.0366,-0.7385 0.58549,-0.62321 0.5422,-0.21664 0.0405,-0.88515 0.70642,-0.70177 0.44338,-0.40305 0.9863,-0.8928 1.16633,-1.32033 0.69258,-1.6e-4 0.69589,-1.05506 0,-1.05834 z m -3.69383,3.55638 c -0.45004,0.0146 -0.41964,0.75332 -0.36587,0.83664 -0.74474,-0.47505 -1.17936,0.97814 -0.27957,0.9772 0.56111,0.10503 0.52923,-0.74291 0.47129,-0.82889 0.77552,0.44718 1.18995,-0.93052 0.27957,-0.97617 -0.0378,-0.007 -0.0728,-0.01 -0.10542,-0.009 z m -4.35839,4.44417 c -0.69018,0.14164 -0.87333,0.98423 -1.42213,1.21026 -0.33964,0.50786 -1.38386,0.90661 -0.88729,1.61592 0.7072,0.49462 1.11092,-0.54376 1.62058,-0.88108 0.22977,-0.54596 1.07678,-0.7246 1.21801,-1.41593 0.006,-0.28412 -0.24495,-0.53528 -0.52917,-0.52917 z"
       style="fill:#1f77b4;fill-opacity:1;fill-rule:nonzero;stroke:#1f77b4;stroke-width:0.352777;stroke-linecap:butt;stroke-linejoin:round;stroke-miterlimit:10;stroke-dasharray:none;stroke-opacity:1"
       id="path37553" />
    <path
       id="path41901"
       style="fill:none;stroke:#000000;stroke-width:0.4;stroke-linecap:square;stroke-linejoin:miter;stroke-miterlimit:10;stroke-dasharray:none;stroke-dashoffset:0;stroke-opacity:1"
       d="M 154.51668,224.80132 V 114.43674" />
    <text
       xml:space="preserve"
       style="font-style:normal;font-variant:normal;font-weight:normal;font-stretch:normal;font-size:7.05556px;line-height:1.25;font-family:Arial;-inkscape-font-specification:Arial;stroke-width:0.264583"
       x="-98.692055"
       y="110.07635"
       id="text129721"><tspan
         sodipodi:role="line"
         id="tspan129719"
         x="-98.692055"
         y="110.07635"
         style="font-style:normal;font-variant:normal;font-weight:normal;font-stretch:normal;font-size:7.05556px;font-family:Arial;-inkscape-font-specification:Arial;stroke-width:0.264583">Slopes</tspan></text>
    <text
       xml:space="preserve"
       style="font-style:normal;font-variant:normal;font-weight:normal;font-stretch:normal;font-size:7.05556px;line-height:1.25;font-family:Arial;-inkscape-font-specification:Arial;stroke-width:0.264583"
       x="49.42654"
       y="109.99022"
       id="text129725"><tspan
         sodipodi:role="line"
         id="tspan129723"
         x="49.42654"
         y="109.99022"
         style="font-style:normal;font-variant:normal;font-weight:normal;font-stretch:normal;font-size:7.05556px;font-family:Arial;-inkscape-font-specification:Arial;stroke-width:0.264583">R-values</tspan></text>
    <text
       xml:space="preserve"
       style="font-style:normal;font-variant:normal;font-weight:normal;font-stretch:normal;font-size:7.05556px;line-height:1.25;font-family:Arial;-inkscape-font-specification:Arial;stroke-width:0.264583"
       x="201.19308"
       y="109.99022"
       id="text129729"><tspan
         sodipodi:role="line"
         id="tspan129727"
         x="201.19308"
         y="109.99022"
         style="font-style:normal;font-variant:normal;font-weight:normal;font-stretch:normal;font-size:7.05556px;font-family:Arial;-inkscape-font-specification:Arial;stroke-width:0.264583">P-values</tspan></text>
    <path
       d="M -145.23519,231.79314 H -30.510242"
       style="fill:none;stroke:#000000;stroke-width:0.4;stroke-linecap:square;stroke-linejoin:miter;stroke-miterlimit:10;stroke-dasharray:none;stroke-dashoffset:0;stroke-opacity:1"
       id="path12933-4" />
    <path
       d="M 5.9412905,231.79314 H 121.05822"
       style="fill:none;stroke:#000000;stroke-width:0.4;stroke-linecap:square;stroke-linejoin:miter;stroke-miterlimit:10;stroke-dasharray:none;stroke-dashoffset:0;stroke-opacity:1"
       id="path31085-9" />
    <path
       id="path31085-9-7"
       style="fill:none;stroke:#000000;stroke-width:0.4;stroke-linecap:square;stroke-linejoin:miter;stroke-miterlimit:10;stroke-dasharray:none;stroke-dashoffset:0;stroke-opacity:1"
       d="M 157.50975,231.79314 H 272.62668" />
    <path
       inkscape:transform-center-y="-44.914061"
       inkscape:transform-center-x="-45.228519"
       d="m -104.61454,187.08077 c -0.0177,0.017 -0.0315,0.0382 -0.0469,0.0576 -0.34614,0.34155 -0.59655,0.59211 -0.75318,0.75229 -0.52041,0.5099 -1.09483,1.0735 -1.16313,1.16014 -0.024,0.0241 -0.53215,0.52828 -0.76417,0.75886 -0.83064,0.82443 -1.66268,1.64736 -1.74755,1.72009 -0.0276,0.0339 -0.29751,0.30156 -0.47415,0.47959 -0.46305,0.45754 -1.12822,1.11732 -1.16748,1.15062 -0.004,0.004 -0.0486,0.0489 -0.0572,0.0582 -0.0336,0.0319 -0.15696,0.15476 -0.16867,0.16458 l 7.3e-4,7.3e-4 c -0.0162,0.0151 -0.0276,0.0338 -0.0419,0.0503 -0.60326,0.61389 -2.31647,2.30487 -2.45636,2.43127 -0.11111,0.13051 -1.74882,1.72556 -1.85693,1.85856 -0.0991,0.10127 -2.46652,2.42174 -2.55282,2.53507 -0.11685,0.12872 -2.51387,2.46594 -2.62103,2.60282 -0.1603,0.15633 -3.31809,3.30282 -3.48782,3.44824 -0.1078,0.13261 -1.73649,1.7438 -1.86713,1.85342 l 3.6e-4,3.7e-4 c -0.30389,0.2827 -0.26315,0.82612 0.0785,1.06106 0.30075,0.23402 0.77605,0.153 0.98902,-0.16057 0.1156,-0.12053 1.74256,-1.72248 1.85977,-1.84029 0.1359,-0.15193 3.2924,-3.27183 3.43508,-3.41775 0.12924,-0.10654 2.4849,-2.47886 2.60969,-2.59151 0.14098,-0.11161 2.49488,-2.5022 2.64041,-2.60966 0.11429,-0.14291 1.77093,-1.73745 1.88333,-1.8826 0.11917,-0.122 1.75444,-1.73988 2.3229,-2.30092 0.0354,-0.0284 0.0673,-0.0602 0.0964,-0.0958 0.0502,-0.0494 0.2408,-0.23863 0.25407,-0.25166 0.0251,-0.0278 0.52765,-0.52541 0.75172,-0.74938 0.41639,-0.41095 0.83347,-0.8241 0.88955,-0.88046 0.0421,-0.0469 0.61998,-0.62001 1.06192,-1.05963 0.66643,-0.65937 1.44409,-1.42909 1.49896,-1.47906 0.0273,-0.0341 0.15019,-0.15919 0.30291,-0.31247 0.16244,-0.16113 0.54796,-0.5427 0.57166,-0.56695 0.0131,-0.0106 0.21008,-0.20904 0.264,-0.26147 0.34323,-0.33752 0.7114,-0.69851 0.76376,-0.75264 0.003,-0.003 0.005,-0.008 0.007,-0.0113 0.72072,-0.71938 1.49883,-1.49813 1.57418,-1.56612 0.14097,-0.11161 2.495227,-2.50256 2.640787,-2.61005 0.11427,-0.14288 1.77056,-1.73708 1.88294,-1.88223 0.13714,-0.14042 2.53335,-2.51199 2.67345,-2.64829 0.003,-0.003 0.0874,-0.0871 0.0942,-0.0943 0.0353,-0.0283 0.0673,-0.06 0.096,-0.0954 0.0851,-0.0871 0.49737,-0.49568 0.76492,-0.7625 0.50824,-0.50203 1.05818,-1.04631 1.12936,-1.11786 0.032,-0.0359 0.52007,-0.5189 0.80891,-0.80692 0.54711,-0.5409 1.2611,-1.24827 1.30903,-1.29191 0.0281,-0.0352 0.15233,-0.16134 0.31281,-0.3223 0.28018,-0.27777 0.56595,-0.56102 0.69449,-0.68893 0.414697,-0.40832 0.833327,-0.81848 0.894677,-0.8819 0.004,-0.004 0.006,-0.01 0.01,-0.015 0.70434,-0.69791 1.91855,-1.91535 2.01491,-2.00236 0.14099,-0.11161 2.49487,-2.50219 2.640436,-2.60966 0.114265,-0.14289 1.770931,-1.73746 1.883299,-1.8826 0.13713,-0.14042 2.533353,-2.512 2.67344,-2.64829 0.136439,-0.15131 3.772148,-3.75436 4.098399,-4.06623 0.01765,-0.015 0.03361,-0.0314 0.04947,-0.0483 0.003,-0.003 0.05228,-0.0521 0.05429,-0.054 0.0239,-0.03 0.141851,-0.14923 0.26624,-0.27459 0.410357,-0.40822 1.501379,-1.4839 1.602374,-1.5854 0.002,-0.001 0.03171,-0.0315 0.03372,-0.0336 0,0 3.51e-4,-3.6e-4 3.51e-4,-3.6e-4 0.193308,-0.20809 3.260102,-3.23977 3.401367,-3.38424 0.129243,-0.10655 2.484505,-2.47851 2.609295,-2.59116 0.14098,-0.11162 2.495242,-2.50255 2.640798,-2.61004 0.114279,-0.14288 1.770562,-1.73708 1.882949,-1.88222 0.137145,-0.14043 2.533345,-2.51199 2.673441,-2.6483 0.116744,-0.12941 2.511998,-2.5033 3.505474,-3.48109 0.03143,-0.025 0.05957,-0.0535 0.08579,-0.0845 0.157453,-0.15482 0.588864,-0.58297 0.611239,-0.60336 0.01951,-0.0244 0.127666,-0.13271 0.21674,-0.22322 0.49307,-0.48689 1.006648,-0.99519 1.074361,-1.06325 0.01505,-0.0168 0.298319,-0.29652 0.378794,-0.3776 0.05534,-0.0548 0.216193,-0.21255 0.2321,-0.22904 0.0024,-0.003 0.0039,-0.005 0.0057,-0.009 0.8423,-0.84248 2.701654,-2.68304 2.818686,-2.80273 0.129243,-0.10655 2.484502,-2.47851 2.609299,-2.59114 0.140979,-0.11162 2.495236,-2.50256 2.640795,-2.61003 0.114276,-0.14289 1.77056,-1.7371 1.882948,-1.88224 0.137147,-0.14042 2.53335,-2.51199 2.673449,-2.6483 0.139861,-0.15511 4.048308,-4.02846 4.202512,-4.1689 0.118541,-0.14809 1.77093,-1.75764 1.901988,-1.89313 0.272727,-0.31268 0.175932,-0.84876 -0.187821,-1.04719 -0.310915,-0.19337 -0.746411,-0.0813 -0.944996,0.22031 -0.119038,0.1324 -1.768776,1.72619 -1.878871,1.8658 -0.130623,0.12936 -4.013055,3.99014 -4.152975,4.10879 -0.141808,0.16959 -2.559803,2.55736 -2.723343,2.70512 -0.111104,0.13051 -1.749182,1.72593 -1.857285,1.85894 -0.09908,0.10126 -2.466514,2.42172 -2.552835,2.53506 -0.116845,0.12872 -2.513488,2.46555 -2.620668,2.60244 -0.12869,0.12554 -1.903979,1.89044 -2.799209,2.77027 -0.03992,0.031 -0.0756,0.0669 -0.107787,0.10636 -0.165814,0.16248 -0.552596,0.54749 -0.580804,0.57167 -0.02685,0.0331 -0.292069,0.2954 -0.460945,0.46575 -0.344991,0.3384 -0.632368,0.62364 -0.769676,0.76722 -0.269824,0.26494 -0.592368,0.5834 -0.636518,0.62044 -0.02881,0.0268 -0.05179,0.0583 -0.07452,0.0891 -0.90679,0.90118 -3.43234,3.41127 -3.551985,3.51271 -0.141813,0.16961 -2.55981,2.55737 -2.723342,2.70512 -0.111105,0.13052 -1.749182,1.72595 -1.85729,1.85894 -0.09908,0.10127 -2.466514,2.42175 -2.552832,2.53508 -0.116843,0.12871 -2.513486,2.46554 -2.620665,2.60243 -0.156654,0.15275 -3.11248,3.09733 -3.408254,3.36997 -0.01976,0.0171 -0.03842,0.0354 -0.05609,0.055 -0.002,9.9e-4 -0.02248,0.0221 -0.02318,0.0237 -0.03616,0.0444 -0.356459,0.36292 -0.621196,0.62782 -0.326118,0.31989 -0.625469,0.61467 -0.928039,0.91502 -0.09312,0.0899 -0.29619,0.2917 -0.318255,0.31022 l 3.59e-4,3.6e-4 c -0.03,0.0276 -0.05381,0.0602 -0.07712,0.0925 -0.176833,0.17548 -3.987905,3.96501 -4.126927,4.08292 -0.141813,0.1696 -2.559802,2.55735 -2.723349,2.70513 -0.111086,0.1305 -1.748826,1.72558 -1.856926,1.85856 -0.099,0.10127 -2.46648,2.42175 -2.55283,2.53508 -0.0821,0.0905 -1.27196,1.25345 -2.020017,1.99503 -0.0344,0.0277 -0.0657,0.0589 -0.0942,0.093 -0.21766,0.21615 -0.33768,0.33986 -0.41145,0.41805 -0.4809,0.4747 -1.4256,1.39342 -1.5144,1.50604 -0.0101,0.01 -0.26952,0.26764 -0.3212,0.31898 -0.83066,0.82444 -1.6627,1.64738 -1.74755,1.7201 -0.0352,0.0431 -0.34864,0.35502 -0.60177,0.6085 -0.471747,0.46701 -0.847857,0.83782 -1.057837,1.04246 -0.0468,0.0445 -0.19315,0.19037 -0.20755,0.20242 l 3.6e-4,3.7e-4 c -0.003,0.003 -0.004,0.006 -0.008,0.009 -0.0254,0.0238 -0.20267,0.20088 -0.20976,0.20679 -0.14181,0.1696 -2.55978,2.55737 -2.72334,2.70512 -0.11108,0.13051 -1.74917,1.72593 -1.85729,1.85895 -0.0991,0.10125 -2.46652,2.42172 -2.55283,2.53507 -0.0669,0.0736 -0.86044,0.85074 -1.56386,1.54424 -0.0239,0.0183 -0.0484,0.0358 -0.0696,0.0575 z"
       style="fill:#1f77b4;fill-opacity:1;stroke-width:0.499999"
       id="path4222915" />
    <text
       id="text4223105"
       y="249.65805"
       x="60.700378"
       style="font-style:normal;font-variant:normal;font-weight:normal;font-stretch:normal;font-size:5.64444px;line-height:1.25;font-family:Arial;-inkscape-font-specification:Arial;text-align:center;text-anchor:middle;stroke-width:0.264583"
       xml:space="preserve"><tspan
         style="font-style:normal;font-variant:normal;font-weight:normal;font-stretch:normal;font-size:5.64444px;font-family:Arial;-inkscape-font-specification:Arial;text-align:center;text-anchor:middle;stroke-width:0.264583"
         y="249.65805"
         x="60.700378"
         id="tspan4223103"
         sodipodi:role="line">scipy.stats R-value</tspan></text>
    <text
       transform="rotate(-90)"
       id="text4223109"
       y="-15.523284"
       x="-169.72238"
       style="font-style:normal;font-variant:normal;font-weight:normal;font-stretch:normal;font-size:5.64444px;line-height:1.25;font-family:Arial;-inkscape-font-specification:Arial;text-align:center;text-anchor:middle;stroke-width:0.264583"
       xml:space="preserve"><tspan
         style="font-style:normal;font-variant:normal;font-weight:normal;font-stretch:normal;font-size:5.64444px;font-family:Arial;-inkscape-font-specification:Arial;text-align:center;text-anchor:middle;stroke-width:0.264583"
         y="-15.523284"
         x="-169.72238"
         id="tspan4223107"
         sodipodi:role="line">Regressor R-value</tspan></text>
    <text
       xml:space="preserve"
       style="font-style:normal;font-variant:normal;font-weight:normal;font-stretch:normal;font-size:5.64444px;line-height:1.25;font-family:Arial;-inkscape-font-specification:Arial;text-align:center;text-anchor:middle;stroke-width:0.264583"
       x="-169.72238"
       y="-165.62262"
       id="text4223109-2"
       transform="rotate(-90)"><tspan
         sodipodi:role="line"
         id="tspan4223107-0"
         x="-169.72238"
         y="-165.62262"
         style="font-style:normal;font-variant:normal;font-weight:normal;font-stretch:normal;font-size:5.64444px;font-family:Arial;-inkscape-font-specification:Arial;text-align:center;text-anchor:middle;stroke-width:0.264583">Regressor slope</tspan></text>
    <text
       xml:space="preserve"
       style="font-style:normal;font-variant:normal;font-weight:normal;font-stretch:normal;font-size:5.64444px;line-height:1.25;font-family:Arial;-inkscape-font-specification:Arial;text-align:center;text-anchor:middle;stroke-width:0.264583"
       x="-100.98097"
       y="249.65805"
       id="text4223105-1"><tspan
         sodipodi:role="line"
         id="tspan4223103-1"
         x="-100.98097"
         y="249.65805"
         style="font-style:normal;font-variant:normal;font-weight:normal;font-stretch:normal;font-size:5.64444px;font-family:Arial;-inkscape-font-specification:Arial;text-align:center;text-anchor:middle;stroke-width:0.264583">scipy.stats slope</tspan></text>
    <text
       xml:space="preserve"
       style="font-style:normal;font-variant:normal;font-weight:normal;font-stretch:normal;font-size:5.64444px;line-height:1.25;font-family:Arial;-inkscape-font-specification:Arial;text-align:center;text-anchor:middle;stroke-width:0.264583"
       x="215.0999"
       y="249.65805"
       id="text4223105-0"><tspan
         sodipodi:role="line"
         id="tspan4223103-2"
         x="215.0999"
         y="249.65805"
         style="font-style:normal;font-variant:normal;font-weight:normal;font-stretch:normal;font-size:5.64444px;font-family:Arial;-inkscape-font-specification:Arial;text-align:center;text-anchor:middle;stroke-width:0.264583">scipy.stats P-value</tspan></text>
    <text
       xml:space="preserve"
       style="font-style:normal;font-variant:normal;font-weight:normal;font-stretch:normal;font-size:5.64444px;line-height:1.25;font-family:Arial;-inkscape-font-specification:Arial;text-align:center;text-anchor:middle;stroke-width:0.264583"
       x="-169.72238"
       y="132.4554"
       id="text4223109-5"
       transform="rotate(-90)"><tspan
         sodipodi:role="line"
         id="tspan4223107-9"
         x="-169.72238"
         y="132.4554"
         style="font-style:normal;font-variant:normal;font-weight:normal;font-stretch:normal;font-size:5.64444px;font-family:Arial;-inkscape-font-specification:Arial;text-align:center;text-anchor:middle;stroke-width:0.264583">Regressor P-value</tspan></text>
    <path
       id="path37151-9"
       style="fill:#000000;fill-opacity:1;fill-rule:nonzero;stroke:#000000;stroke-width:0.4;stroke-linecap:butt;stroke-linejoin:round;stroke-miterlimit:10;stroke-dasharray:none;stroke-dashoffset:0;stroke-opacity:1"
       d="m 162.16399,231.59314 v 3" />
    <path
       d="m 267.07499,231.59314 v 3"
       style="fill:#000000;fill-opacity:1;fill-rule:nonzero;stroke:#000000;stroke-width:0.4;stroke-linecap:butt;stroke-linejoin:round;stroke-miterlimit:10;stroke-dasharray:none;stroke-dashoffset:0;stroke-opacity:1"
       id="path37151-9-2" />
    <path
       d="m 197.13433,231.59314 v 3"
       style="fill:#000000;fill-opacity:1;fill-rule:nonzero;stroke:#000000;stroke-width:0.4;stroke-linecap:butt;stroke-linejoin:round;stroke-miterlimit:10;stroke-dasharray:none;stroke-dashoffset:0;stroke-opacity:1"
       id="path37151-9-5" />
    <path
       d="m 232.10465,231.59314 v 3"
       style="fill:#000000;fill-opacity:1;fill-rule:nonzero;stroke:#000000;stroke-width:0.4;stroke-linecap:butt;stroke-linejoin:round;stroke-miterlimit:10;stroke-dasharray:none;stroke-dashoffset:0;stroke-opacity:1"
       id="path37151-9-8" />
    <text
       id="text4223236"
       y="240.84775"
       x="154.57549"
       style="font-style:normal;font-variant:normal;font-weight:normal;font-stretch:normal;font-size:5.64444px;line-height:1.25;font-family:Arial;-inkscape-font-specification:Arial;stroke-width:0.264583"
       xml:space="preserve"><tspan
         style="font-style:normal;font-variant:normal;font-weight:normal;font-stretch:normal;font-size:5.64444px;font-family:Arial;-inkscape-font-specification:Arial;stroke-width:0.264583"
         y="240.84775"
         x="154.57549"
         id="tspan4223234"
         sodipodi:role="line">10<tspan
   id="tspan4223319"
   style="font-size:4.23333px;baseline-shift:super">-300</tspan></tspan></text>
    <text
       id="text4223240"
       y="240.84775"
       x="188.94325"
       style="font-style:normal;font-variant:normal;font-weight:normal;font-stretch:normal;font-size:5.64444px;line-height:1.25;font-family:Arial;-inkscape-font-specification:Arial;stroke-width:0.264583"
       xml:space="preserve"><tspan
         style="font-style:normal;font-variant:normal;font-weight:normal;font-stretch:normal;font-size:5.64444px;font-family:Arial;-inkscape-font-specification:Arial;stroke-width:0.264583"
         y="240.84775"
         x="188.94325"
         id="tspan4223238"
         sodipodi:role="line">10<tspan
   id="tspan4223321"
   style="font-size:4.23333px;baseline-shift:super">-200</tspan></tspan></text>
    <text
       id="text4223244"
       y="240.84775"
       x="225.33916"
       style="font-style:normal;font-variant:normal;font-weight:normal;font-stretch:normal;font-size:5.64444px;line-height:1.25;font-family:Arial;-inkscape-font-specification:Arial;stroke-width:0.264583"
       xml:space="preserve"><tspan
         style="font-style:normal;font-variant:normal;font-weight:normal;font-stretch:normal;font-size:5.64444px;font-family:Arial;-inkscape-font-specification:Arial;stroke-width:0.264583"
         y="240.84775"
         x="225.33916"
         id="tspan4223242"
         sodipodi:role="line">10<tspan
   id="tspan4223323"
   style="font-size:4.23333px;baseline-shift:super">-100</tspan></tspan></text>
    <text
       id="text4223248"
       y="240.91666"
       x="265.71628"
       style="font-style:normal;font-variant:normal;font-weight:normal;font-stretch:normal;font-size:5.64444px;line-height:1.25;font-family:Arial;-inkscape-font-specification:Arial;stroke-width:0.264583"
       xml:space="preserve"><tspan
         style="font-style:normal;font-variant:normal;font-weight:normal;font-stretch:normal;font-size:5.64444px;font-family:Arial;-inkscape-font-specification:Arial;stroke-width:0.264583"
         y="240.91666"
         x="265.71628"
         id="tspan4223246"
         sodipodi:role="line">1</tspan></text>
    <path
       id="path37343-6"
       style="fill:#000000;fill-opacity:1;fill-rule:nonzero;stroke:#000000;stroke-width:0.4;stroke-linecap:butt;stroke-linejoin:round;stroke-miterlimit:10;stroke-dasharray:none;stroke-dashoffset:0;stroke-opacity:1"
       d="m 154.65779,224.195 h -3" />
    <path
       d="m 154.65779,119.778 h -3"
       style="fill:#000000;fill-opacity:1;fill-rule:nonzero;stroke:#000000;stroke-width:0.4;stroke-linecap:butt;stroke-linejoin:round;stroke-miterlimit:10;stroke-dasharray:none;stroke-dashoffset:0;stroke-opacity:1"
       id="path37343-6-7" />
    <path
       id="path37343-6-7-9"
       style="fill:#000000;fill-opacity:1;fill-rule:nonzero;stroke:#000000;stroke-width:0.4;stroke-linecap:butt;stroke-linejoin:round;stroke-miterlimit:10;stroke-dasharray:none;stroke-dashoffset:0;stroke-opacity:1"
       d="m 154.6578,154.58367 h -3.00001" />
    <path
       id="path37343-6-7-5"
       style="fill:#000000;fill-opacity:1;fill-rule:nonzero;stroke:#000000;stroke-width:0.4;stroke-linecap:butt;stroke-linejoin:round;stroke-miterlimit:10;stroke-dasharray:none;stroke-dashoffset:0;stroke-opacity:1"
       d="m 154.65779,189.38934 h -3" />
    <text
       xml:space="preserve"
       style="font-style:normal;font-variant:normal;font-weight:normal;font-stretch:normal;font-size:5.64444px;line-height:1.25;font-family:Arial;-inkscape-font-specification:Arial;stroke-width:0.264583"
       x="135.56418"
       y="225.75247"
       id="text4223236-3"><tspan
         sodipodi:role="line"
         id="tspan4223234-2"
         x="135.56418"
         y="225.75247"
         style="font-style:normal;font-variant:normal;font-weight:normal;font-stretch:normal;font-size:5.64444px;font-family:Arial;-inkscape-font-specification:Arial;stroke-width:0.264583">10<tspan
   style="font-size:4.23333px;baseline-shift:super;stroke-width:0.264583"
   id="tspan4223319-7">-300</tspan></tspan></text>
    <text
       xml:space="preserve"
       style="font-style:normal;font-variant:normal;font-weight:normal;font-stretch:normal;font-size:5.64444px;line-height:1.25;font-family:Arial;-inkscape-font-specification:Arial;stroke-width:0.264583"
       x="135.56418"
       y="191.29959"
       id="text4223240-1"><tspan
         sodipodi:role="line"
         id="tspan4223238-9"
         x="135.56418"
         y="191.29959"
         style="font-style:normal;font-variant:normal;font-weight:normal;font-stretch:normal;font-size:5.64444px;font-family:Arial;-inkscape-font-specification:Arial;stroke-width:0.264583">10<tspan
   style="font-size:4.23333px;baseline-shift:super;stroke-width:0.264583"
   id="tspan4223321-5">-200</tspan></tspan></text>
    <text
       xml:space="preserve"
       style="font-style:normal;font-variant:normal;font-weight:normal;font-stretch:normal;font-size:5.64444px;line-height:1.25;font-family:Arial;-inkscape-font-specification:Arial;stroke-width:0.264583"
       x="135.56418"
       y="156.84669"
       id="text4223244-1"><tspan
         sodipodi:role="line"
         id="tspan4223242-7"
         x="135.56418"
         y="156.84669"
         style="font-style:normal;font-variant:normal;font-weight:normal;font-stretch:normal;font-size:5.64444px;font-family:Arial;-inkscape-font-specification:Arial;stroke-width:0.264583">10<tspan
   style="font-size:4.23333px;baseline-shift:super;stroke-width:0.264583"
   id="tspan4223323-6">-100</tspan></tspan></text>
    <text
       xml:space="preserve"
       style="font-style:normal;font-variant:normal;font-weight:normal;font-stretch:normal;font-size:5.64444px;line-height:1.25;font-family:Arial;-inkscape-font-specification:Arial;stroke-width:0.264583"
       x="148.0237"
       y="121.80647"
       id="text4223248-0"><tspan
         sodipodi:role="line"
         id="tspan4223246-5"
         x="148.0237"
         y="121.80647"
         style="font-style:normal;font-variant:normal;font-weight:normal;font-stretch:normal;font-size:5.64444px;font-family:Arial;-inkscape-font-specification:Arial;stroke-width:0.264583">1</tspan></text>
  </g>
</svg>
